# 3ds Max Wavefront OBJ Exporter v0.94b - (c)2007 guruware
# File Created: 23.01.2011 23:01:02

mtllib Sidewinder.mtl

#
# object _00_sky
#

v  -2777455.7500 -452.0245 -4817185.5000
v  -977.1357 800921.6250 -4817185.0000
v  -976.9908 -452.0245 -5561140.0000
v  2403523.2500 800921.6250 -4172901.0000
v  2775501.2500 -452.0245 -4817184.5000
v  4163740.2500 800921.6250 -2412683.5000
v  4808024.0000 -452.0245 -2784660.7500
v  4808024.0000 800921.5000 -8182.0273
v  5551979.5000 -452.0245 -8181.9741
v  4163739.7500 800921.5000 2396319.2500
v  4808024.0000 -452.0245 2768297.0000
v  2403522.7500 800921.5000 4156536.2500
v  2775500.2500 -452.0245 4800820.5000
v  -978.5892 800921.5000 4800820.0000
v  -978.6691 -452.0245 5544775.5000
v  -2405479.7500 800921.5000 4156535.5000
v  -2777457.5000 -452.0245 4800820.5000
v  -4165696.5000 800921.5000 2396318.2500
v  -4809981.0000 -452.0245 2768296.0000
v  -4809980.5000 800921.5000 -8183.0273
v  -5553936.0000 -452.0245 -8183.1665
v  -4165696.0000 800921.6250 -2412684.5000
v  -4809980.5000 -452.0245 -2784662.0000
v  -2405478.7500 800921.6250 -4172901.0000
v  -977.5318 2044362.1250 -2784661.5000
v  1387261.6250 2044361.8750 -2412683.5000
v  2403522.7500 2044362.1250 -1396421.7500
v  2775500.7500 2044362.1250 -8182.1606
v  2403522.7500 2044361.8750 1380057.2500
v  1387261.0000 2044362.1250 2396319.0000
v  -978.3710 2044361.8750 2768296.7500
v  -1389217.8750 2044362.1250 2396319.0000
v  -2405479.7500 2044361.8750 1380056.8750
v  -2777457.0000 2044361.8750 -8182.7856
v  -2405479.0000 2044362.1250 -1396422.2500
v  -1389217.1250 2044361.8750 -2412684.0000
v  -978.0728 3132841.5000 -8182.3633
# 37 vertices

vn -0.0000 -0.6804 0.7329
vn -0.0000 -0.7630 0.6464
vn 0.3664 -0.6804 0.6347
vn -0.3232 -0.7630 0.5598
vn -0.3664 -0.6804 0.6347
vn -0.5598 -0.7630 0.3232
vn -0.6347 -0.6804 0.3664
vn -0.6464 -0.7630 -0.0000
vn -0.7329 -0.6804 0.0000
vn -0.5598 -0.7630 -0.3232
vn -0.6347 -0.6804 -0.3664
vn -0.3232 -0.7630 -0.5598
vn -0.3664 -0.6804 -0.6347
vn 0.0000 -0.7630 -0.6464
vn 0.0000 -0.6804 -0.7329
vn 0.3232 -0.7630 -0.5598
vn 0.3664 -0.6804 -0.6347
vn 0.5598 -0.7630 -0.3232
vn 0.6347 -0.6804 -0.3664
vn 0.6464 -0.7630 0.0000
vn 0.7329 -0.6804 0.0000
vn 0.5598 -0.7630 0.3232
vn 0.6347 -0.6804 0.3664
vn 0.3232 -0.7630 0.5598
vn -0.0000 -0.8896 0.4567
vn -0.2283 -0.8896 0.3955
vn -0.3955 -0.8896 0.2283
vn -0.4567 -0.8896 -0.0000
vn -0.3955 -0.8896 -0.2283
vn -0.2283 -0.8896 -0.3955
vn 0.0000 -0.8896 -0.4567
vn 0.2283 -0.8896 -0.3955
vn 0.3955 -0.8896 -0.2283
vn 0.4567 -0.8896 -0.0000
vn 0.3955 -0.8896 0.2283
vn 0.2283 -0.8896 0.3955
vn 0.0000 -1.0000 0.0000
# 37 vertex normals

vt 0.5000 0.0005 0.0000
vt 0.5000 0.0955 0.0000
vt 0.7498 0.0674 0.0000
vt 0.2977 0.1497 0.0000
vt 0.2503 0.0674 0.0000
vt 0.1497 0.2977 0.0000
vt 0.0674 0.2503 0.0000
vt 0.0955 0.5000 0.0000
vt 0.0005 0.5000 0.0000
vt 0.1497 0.7023 0.0000
vt 0.0674 0.7498 0.0000
vt 0.2977 0.8503 0.0000
vt 0.2503 0.9326 0.0000
vt 0.5000 0.9045 0.0000
vt 0.5000 0.9995 0.0000
vt 0.7023 0.8503 0.0000
vt 0.7498 0.9326 0.0000
vt 0.8503 0.7023 0.0000
vt 0.9326 0.7498 0.0000
vt 0.9045 0.5000 0.0000
vt 0.9995 0.5000 0.0000
vt 0.8503 0.2977 0.0000
vt 0.9326 0.2503 0.0000
vt 0.7023 0.1497 0.0000
vt 0.5000 0.2664 0.0000
vt 0.3832 0.2977 0.0000
vt 0.2977 0.3832 0.0000
vt 0.2664 0.5000 0.0000
vt 0.2977 0.6168 0.0000
vt 0.3832 0.7023 0.0000
vt 0.5000 0.7336 0.0000
vt 0.6168 0.7023 0.0000
vt 0.7023 0.6168 0.0000
vt 0.7336 0.5000 0.0000
vt 0.7023 0.3832 0.0000
vt 0.6168 0.2977 0.0000
vt 0.5000 0.5000 0.0000
# 37 texture coords

g _00_sky
usemtl sky_dusk
s 1
f -35/-37/-37 -36/-36/-36 -37/-35/-35 
f -36/-36/-36 -35/-37/-37 -34/-34/-34 
f -33/-33/-33 -34/-34/-34 -35/-37/-37 
f -34/-34/-34 -33/-33/-33 -32/-32/-32 
f -31/-31/-31 -32/-32/-32 -33/-33/-33 
f -32/-32/-32 -31/-31/-31 -30/-30/-30 
f -29/-29/-29 -30/-30/-30 -31/-31/-31 
f -30/-30/-30 -29/-29/-29 -28/-28/-28 
f -27/-27/-27 -28/-28/-28 -29/-29/-29 
f -28/-28/-28 -27/-27/-27 -26/-26/-26 
f -25/-25/-25 -26/-26/-26 -27/-27/-27 
f -26/-26/-26 -25/-25/-25 -24/-24/-24 
f -23/-23/-23 -24/-24/-24 -25/-25/-25 
f -24/-24/-24 -23/-23/-23 -22/-22/-22 
f -21/-21/-21 -22/-22/-22 -23/-23/-23 
f -22/-22/-22 -21/-21/-21 -20/-20/-20 
f -19/-19/-19 -20/-20/-20 -21/-21/-21 
f -20/-20/-20 -19/-19/-19 -18/-18/-18 
f -17/-17/-17 -18/-18/-18 -19/-19/-19 
f -18/-18/-18 -17/-17/-17 -16/-16/-16 
f -15/-15/-15 -16/-16/-16 -17/-17/-17 
f -16/-16/-16 -15/-15/-15 -14/-14/-14 
f -37/-35/-35 -14/-14/-14 -15/-15/-15 
f -36/-36/-36 -14/-14/-14 -37/-35/-35 
f -14/-14/-14 -36/-36/-36 -13/-13/-13 
f -13/-13/-13 -36/-36/-36 -12/-12/-12 
f -34/-34/-34 -12/-12/-12 -36/-36/-36 
f -12/-12/-12 -34/-34/-34 -11/-11/-11 
f -32/-32/-32 -11/-11/-11 -34/-34/-34 
f -11/-11/-11 -32/-32/-32 -10/-10/-10 
f -30/-30/-30 -10/-10/-10 -32/-32/-32 
f -10/-10/-10 -30/-30/-30 -9/-9/-9 
f -28/-28/-28 -9/-9/-9 -30/-30/-30 
f -9/-9/-9 -28/-28/-28 -8/-8/-8 
f -26/-26/-26 -8/-8/-8 -28/-28/-28 
f -8/-8/-8 -26/-26/-26 -7/-7/-7 
f -24/-24/-24 -7/-7/-7 -26/-26/-26 
f -7/-7/-7 -24/-24/-24 -6/-6/-6 
f -22/-22/-22 -6/-6/-6 -24/-24/-24 
f -6/-6/-6 -22/-22/-22 -5/-5/-5 
f -20/-20/-20 -5/-5/-5 -22/-22/-22 
f -5/-5/-5 -20/-20/-20 -4/-4/-4 
f -18/-18/-18 -4/-4/-4 -20/-20/-20 
f -4/-4/-4 -18/-18/-18 -3/-3/-3 
f -16/-16/-16 -3/-3/-3 -18/-18/-18 
f -3/-3/-3 -16/-16/-16 -2/-2/-2 
f -14/-14/-14 -2/-2/-2 -16/-16/-16 
f -13/-13/-13 -2/-2/-2 -14/-14/-14 
f -2/-2/-2 -13/-13/-13 -1/-1/-1 
f -12/-12/-12 -1/-1/-1 -13/-13/-13 
f -11/-11/-11 -1/-1/-1 -12/-12/-12 
f -10/-10/-10 -1/-1/-1 -11/-11/-11 
f -9/-9/-9 -1/-1/-1 -10/-10/-10 
f -8/-8/-8 -1/-1/-1 -9/-9/-9 
f -7/-7/-7 -1/-1/-1 -8/-8/-8 
f -6/-6/-6 -1/-1/-1 -7/-7/-7 
f -5/-5/-5 -1/-1/-1 -6/-6/-6 
f -4/-4/-4 -1/-1/-1 -5/-5/-5 
f -3/-3/-3 -1/-1/-1 -4/-4/-4 
f -1/-1/-1 -3/-3/-3 -2/-2/-2 
# 60 faces

#
# object _14_threshold
#

v  -2209672.5000 41228.3984 -2172285.5000
v  -2568609.0000 41228.2734 1782636.5000
v  -2087821.8750 2018059.3750 -2172285.0000
v  -2446758.5000 2018059.3750 1782636.7500
# 4 vertices

vn 0.9940 -0.0613 0.0902
# 1 vertex normals

vt 0.9948 0.9977 0.0000
vt 0.0043 0.0169 0.0000
vt 0.9948 0.0162 0.0000
vt 0.0051 0.9977 0.0000
# 4 texture coords

g _14_threshold
usemtl threshold_dusk
s 1
f -2/-4/-1 -3/-3/-1 -4/-2/-1 
f -3/-3/-1 -2/-4/-1 -1/-1/-1 
# 2 faces

#
# object _15_basis
#

v  1523881.8750 1367529.6250 1124642.2500
v  1315834.7500 1661440.0000 887184.9375
v  1204125.2500 1375000.3750 1414042.6250
v  996077.9375 1668910.5000 1176585.2500
# 4 vertices

vn -0.4667 -0.7317 -0.4968
# 1 vertex normals

vt 0.0044 0.0059 0.0000
vt 0.9954 0.9971 0.0000
vt 0.9954 0.0074 0.0000
vt 0.0029 0.9971 0.0000
# 4 texture coords

g _15_basis
usemtl basis_dusk
s 1
f -2/-4/-1 -3/-3/-1 -4/-2/-1 
f -3/-3/-1 -2/-4/-1 -1/-1/-1 
# 2 faces

#
# object _20_ring
#

v  -67249.2578 304124.6563 -987549.8750
v  -40919.3438 514717.1875 -1071585.7500
v  67273.8516 304124.6563 -987549.8750
v  40926.1445 514717.0313 -1071585.8750
v  -98538.2813 190273.6250 -935875.6250
v  -67249.2578 304124.6563 -987549.8750
v  98619.6250 190273.6250 -935875.6250
v  67273.8516 304124.6563 -987549.8750
v  232149.9688 -7999.9292 -823453.3125
v  0.0964 -8000.0186 -823453.5000
v  0.1184 17414.8047 -839923.5625
v  -232149.7031 -7999.9634 -823453.5000
v  0.1184 17414.8047 -839923.5625
v  232149.9531 17653.7793 -839674.0000
v  232149.9688 -7999.9292 -823453.3125
v  372492.8125 17798.2246 -839523.3125
v  0.1184 17414.8047 -839923.5625
v  236793.4375 54102.0000 -861894.8125
v  232149.9531 17653.7793 -839674.0000
v  372492.8125 17798.2246 -839523.3125
v  0.1184 17414.8047 -839923.5625
v  -232149.7031 -7999.9634 -823453.5000
v  -232149.4844 17653.6992 -839674.1250
v  -372492.4375 17798.1602 -839523.6250
v  0.1184 17414.8047 -839923.5625
v  -232149.4844 17653.6992 -839674.1250
v  -236792.9688 54102.0156 -861894.8125
v  -372492.4375 17798.1602 -839523.6250
v  -13741.0186 1740332.0000 -665036.1875
v  -11857.3506 1859016.0000 -464217.1563
v  13806.2041 1740329.5000 -665036.1875
v  11972.0469 1859013.6250 -464217.2813
v  -11857.3506 1859016.0000 -464217.1563
v  -9845.9316 1932815.6250 -239335.0469
v  11972.0469 1859013.6250 -464217.2813
v  9968.4863 1932813.2500 -239335.1719
v  -67249.5469 304124.6563 987549.6250
v  67273.5547 304124.6563 987549.6250
v  -40919.6680 514717.1875 1071585.8750
v  40925.8281 514717.0313 1071585.8750
v  -98538.5703 190273.6250 935875.0000
v  98619.3438 190273.6250 935875.0000
v  -67249.5469 304124.6563 987549.6250
v  67273.5547 304124.6563 987549.6250
v  232149.7500 -7999.9292 823453.1250
v  -0.1060 17414.8047 839923.5625
v  -0.0095 -8000.0186 823453.0000
v  -232149.9219 -7999.9634 823453.0000
v  -0.1060 17414.8047 839923.5625
v  232149.7500 -7999.9292 823453.1250
v  232149.7031 17653.7793 839674.3125
v  372492.5625 17798.2246 839523.8125
v  -0.1060 17414.8047 839923.5625
v  232149.7031 17653.7793 839674.3125
v  236793.1875 54102.0000 861894.8125
v  372492.5625 17798.2246 839523.8125
v  -0.1060 17414.8047 839923.5625
v  -232149.7031 17653.6992 839674.3125
v  -232149.9219 -7999.9634 823453.0000
v  -372492.6875 17798.1602 839523.6250
v  -0.1060 17414.8047 839923.5625
v  -236793.2188 54102.0156 861894.6250
v  -232149.7031 17653.6992 839674.3125
v  -372492.6875 17798.1602 839523.6250
v  -13741.2197 1740332.0000 665036.4375
v  13806.0039 1740329.5000 665036.4375
v  -11857.4893 1859016.0000 464217.0938
v  11971.9063 1859013.6250 464216.9688
v  -11857.4893 1859016.0000 464217.0938
v  11971.9063 1859013.6250 464216.9688
v  -9846.0322 1932815.6250 239335.2031
v  9968.3867 1932813.2500 239335.2031
v  98619.6250 190273.6250 -935875.6250
v  148976.4844 104953.7109 -889786.0625
v  0.1571 104848.3516 -889914.7500
v  -98538.2813 190273.6250 -935875.6250
v  -146101.9219 104917.7891 -889829.0000
v  0.1571 104848.3516 -889914.7500
v  98619.6250 190273.6250 -935875.6250
v  0.1571 104848.3516 -889914.7500
v  -98538.2813 190273.6250 -935875.6250
v  0.1296 54590.1172 -862730.6875
v  236793.4375 54102.0000 -861894.8125
v  0.1571 104848.3516 -889914.7500
v  148976.4844 104953.7109 -889786.0625
v  236793.4375 54102.0000 -861894.8125
v  0.1571 104848.3516 -889914.7500
v  503413.0000 -7999.9907 -823453.5000
v  372492.8125 17798.2246 -839523.3125
v  232149.9688 -7999.9292 -823453.3125
v  0.1296 54590.1172 -862730.6875
v  236793.4375 54102.0000 -861894.8125
v  0.1184 17414.8047 -839923.5625
v  0.1571 104848.3516 -889914.7500
v  -236792.9688 54102.0156 -861894.8125
v  0.1296 54590.1172 -862730.6875
v  -146101.9219 104917.7891 -889829.0000
v  0.1571 104848.3516 -889914.7500
v  -236792.9688 54102.0156 -861894.8125
v  -232149.7031 -7999.9634 -823453.5000
v  -372492.4375 17798.1602 -839523.6250
v  -503413.1250 -7999.9971 -823453.5000
v  0.1296 54590.1172 -862730.6875
v  0.1184 17414.8047 -839923.5625
v  -236792.9688 54102.0156 -861894.8125
v  -40919.3438 514717.1875 -1071585.7500
v  40926.1445 514717.0313 -1071585.8750
v  -29926.6016 728711.1250 -1109445.0000
v  29927.1543 728567.5000 -1110151.0000
v  40926.1445 514717.0313 -1071585.8750
v  -29926.6016 728711.1250 -1109445.0000
v  -29926.6016 728711.1250 -1109445.0000
v  29927.1543 728567.5000 -1110151.0000
v  -22117.6934 957541.3125 -1109445.0000
v  22102.7344 957540.5000 -1109445.0000
v  29927.1543 728567.5000 -1110151.0000
v  -22117.6934 957541.3125 -1109445.0000
v  -22117.6934 957541.3125 -1109445.0000
v  22102.7344 957540.5000 -1109445.0000
v  -20424.6797 1182443.0000 -1062101.7500
v  20413.2637 1182664.5000 -1062775.5000
v  22102.7344 957540.5000 -1109445.0000
v  -20424.6797 1182443.0000 -1062101.7500
v  -20424.6797 1182443.0000 -1062101.7500
v  20413.2637 1182664.5000 -1062775.5000
v  -18310.8359 1393924.7500 -969481.9375
v  18314.9434 1393924.6250 -969481.8125
v  20413.2637 1182664.5000 -1062775.5000
v  -18310.8359 1393924.7500 -969481.9375
v  -18310.8359 1393924.7500 -969481.9375
v  18314.9434 1393924.6250 -969481.8125
v  -15990.6094 1582768.5000 -835422.6875
v  16018.6709 1582791.7500 -835950.9375
v  18314.9434 1393924.6250 -969481.8125
v  -15990.6094 1582768.5000 -835422.6875
v  -15990.6094 1582768.5000 -835422.6875
v  16018.6709 1582791.7500 -835950.9375
v  -13741.0186 1740332.0000 -665036.1875
v  13806.2041 1740329.5000 -665036.1875
v  16018.6709 1582791.7500 -835950.9375
v  -13741.0186 1740332.0000 -665036.1875
v  -9845.9316 1932815.6250 -239335.0469
v  9968.4863 1932813.2500 -239335.1719
v  -10571.9043 1957862.1250 -0.0394
v  10782.7891 1957833.7500 -0.0394
v  9968.4863 1932813.2500 -239335.1719
v  -10571.9043 1957862.1250 -0.0394
v  -0.1012 104848.3516 889914.3750
v  98619.3438 190273.6250 935875.0000
v  148976.2344 104953.7109 889785.6250
v  -146102.2031 104917.7891 889828.5000
v  -0.1012 104848.3516 889914.3750
v  -98538.5703 190273.6250 935875.0000
v  -98538.5703 190273.6250 935875.0000
v  98619.3438 190273.6250 935875.0000
v  -0.1012 104848.3516 889914.3750
v  236793.1875 54102.0000 861894.8125
v  -0.1012 104848.3516 889914.3750
v  -0.1168 54590.1172 862730.6875
v  -0.1012 104848.3516 889914.3750
v  148976.2344 104953.7109 889785.6250
v  236793.1875 54102.0000 861894.8125
v  372492.5625 17798.2246 839523.8125
v  232149.7500 -7999.9292 823453.1250
v  503412.7500 -7999.9907 823453.1250
v  -0.1060 17414.8047 839923.5625
v  -0.1168 54590.1172 862730.6875
v  236793.1875 54102.0000 861894.8125
v  -236793.2188 54102.0156 861894.6250
v  -0.1168 54590.1172 862730.6875
v  -0.1012 104848.3516 889914.3750
v  -236793.2188 54102.0156 861894.6250
v  -146102.2031 104917.7891 889828.5000
v  -0.1012 104848.3516 889914.3750
v  -372492.6875 17798.1602 839523.6250
v  -503413.3438 -7999.9971 823453.0000
v  -232149.9219 -7999.9634 823453.0000
v  -236793.2188 54102.0156 861894.6250
v  -0.1168 54590.1172 862730.6875
v  -0.1060 17414.8047 839923.5625
v  40925.8281 514717.0313 1071585.8750
v  -29926.9355 728711.1250 1109445.0000
v  -40919.6680 514717.1875 1071585.8750
v  -29926.9355 728711.1250 1109445.0000
v  29926.8223 728567.5000 1110151.0000
v  40925.8281 514717.0313 1071585.8750
v  29926.8223 728567.5000 1110151.0000
v  -22118.0313 957541.3125 1109445.0000
v  -29926.9355 728711.1250 1109445.0000
v  -22118.0313 957541.3125 1109445.0000
v  22102.3984 957540.5000 1109445.0000
v  29926.8223 728567.5000 1110151.0000
v  22102.3984 957540.5000 1109445.0000
v  -20425.0020 1182443.0000 1062101.3750
v  -22118.0313 957541.3125 1109445.0000
v  -20425.0020 1182443.0000 1062101.3750
v  20412.9414 1182664.5000 1062775.3750
v  22102.3984 957540.5000 1109445.0000
v  20412.9414 1182664.5000 1062775.3750
v  -18311.1289 1393924.7500 969481.7500
v  -20425.0020 1182443.0000 1062101.3750
v  -18311.1289 1393924.7500 969481.7500
v  18314.6504 1393924.6250 969481.7500
v  20412.9414 1182664.5000 1062775.3750
v  18314.6504 1393924.6250 969481.7500
v  -15990.8604 1582768.5000 835422.0000
v  -18311.1289 1393924.7500 969481.7500
v  -15990.8604 1582768.5000 835422.0000
v  16018.4189 1582791.7500 835950.1875
v  18314.6504 1393924.6250 969481.7500
v  16018.4189 1582791.7500 835950.1875
v  -13741.2197 1740332.0000 665036.4375
v  -15990.8604 1582768.5000 835422.0000
v  -13741.2197 1740332.0000 665036.4375
v  13806.0039 1740329.5000 665036.4375
v  16018.4189 1582791.7500 835950.1875
v  9968.3867 1932813.2500 239335.2031
v  -10571.9043 1957862.1250 -0.0394
v  -9846.0322 1932815.6250 239335.2031
v  -10571.9043 1957862.1250 -0.0394
v  10782.7891 1957833.7500 -0.0394
v  9968.3867 1932813.2500 239335.2031
# 222 vertices

vn 0.0000 0.3706 0.9288
vn 0.0000 0.4133 0.9106
vn -0.0000 0.5438 0.8392
vn 0.0000 0.5438 0.8392
vn -0.0015 0.5344 0.8452
vn -0.0015 0.5207 0.8538
vn 0.0015 0.5344 0.8452
vn 0.0015 0.5207 0.8538
vn -0.0001 -0.8609 0.5088
vn -0.0001 -0.9501 0.3118
vn 0.0000 0.3706 -0.9288
vn 0.0000 0.4133 -0.9106
vn 0.0000 0.5438 -0.8392
vn -0.0015 0.5344 -0.8452
vn -0.0015 0.5207 -0.8538
vn 0.0015 0.5344 -0.8452
vn 0.0015 0.5207 -0.8538
vn -0.0001 -0.8609 -0.5088
vn -0.0001 -0.9501 -0.3118
vn -0.0011 0.4748 0.8801
vn 0.0007 0.4745 0.8803
vn 0.0000 0.4738 0.8806
vn -0.0021 0.4758 0.8796
vn -0.0011 0.4794 0.8776
vn 0.0000 0.5287 0.8488
vn -0.0019 0.5229 0.8524
vn 0.0021 0.4758 0.8796
vn 0.0007 0.4807 0.8769
vn -0.0000 0.5287 0.8488
vn 0.0019 0.5229 0.8524
vn 0.0000 0.1742 0.9847
vn 0.0120 0.1781 0.9839
vn 0.0118 -0.0004 0.9999
vn -0.0000 -0.0031 1.0000
vn -0.0000 -0.2060 0.9786
vn 0.0173 -0.2028 0.9791
vn 0.0173 -0.4013 0.9158
vn -0.0000 -0.4040 0.9148
vn -0.0000 -0.5789 0.8154
vn 0.0139 -0.5771 0.8165
vn 0.0117 -0.7342 0.6788
vn -0.0001 -0.7353 0.6777
vn -0.0001 -0.9946 0.1041
vn -0.0013 -0.9946 0.1040
vn -0.0011 0.4748 -0.8801
vn 0.0007 0.4745 -0.8803
vn 0.0000 0.4738 -0.8806
vn -0.0021 0.4757 -0.8796
vn -0.0011 0.4794 -0.8776
vn 0.0000 0.5287 -0.8488
vn -0.0019 0.5229 -0.8524
vn 0.0021 0.4757 -0.8796
vn 0.0007 0.4807 -0.8769
vn -0.0000 0.5287 -0.8488
vn 0.0019 0.5229 -0.8524
vn 0.0000 0.1742 -0.9847
vn 0.0120 0.1781 -0.9839
vn 0.0118 -0.0004 -0.9999
vn -0.0000 -0.0031 -1.0000
vn -0.0000 -0.2060 -0.9786
vn 0.0173 -0.2028 -0.9791
vn 0.0173 -0.4013 -0.9158
vn -0.0000 -0.4040 -0.9148
vn -0.0000 -0.5789 -0.8154
vn 0.0139 -0.5771 -0.8165
vn 0.0117 -0.7342 -0.6788
vn -0.0001 -0.7353 -0.6777
vn -0.0001 -0.9946 -0.1041
vn -0.0013 -0.9946 -0.1040
# 69 vertex normals

vt 0.6958 0.5568 0.0000
vt 0.4813 0.9744 0.0000
vt 0.4291 0.5568 0.0000
vt 0.6436 0.9744 0.0000
vt 0.7580 0.3311 0.0000
vt 0.3670 0.3311 0.0000
vt 0.1127 0.9918 0.0000
vt 0.0047 0.9918 0.0000
vt 0.0047 0.5269 0.0000
vt 0.1128 0.5269 0.0000
vt 0.1128 0.2983 0.0000
vt 0.2525 0.5269 0.0000
vt 0.7997 0.4458 0.0000
vt 0.7413 0.6255 0.0000
vt 0.7370 0.4458 0.0000
vt 0.7955 0.6255 0.0000
vt 0.7441 0.8110 0.0000
vt 0.7928 0.8110 0.0000
vt 0.5607 0.1723 0.0000
vt 0.8400 0.1725 0.0000
vt 0.2870 0.1724 0.0000
vt 0.2543 0.9918 0.0000
vt 0.4382 0.9918 0.0000
vt 0.4382 0.7062 0.0000
vt 0.0047 0.0537 0.0000
vt 0.0744 0.1682 0.0000
vt 0.0744 0.0069 0.0000
vt 0.5056 0.1475 0.0000
vt 0.5056 0.0270 0.0000
vt 0.9666 0.1389 0.0000
vt 0.9666 0.0374 0.0000
vt 0.8902 0.1935 0.0000
vt 0.9918 0.1935 0.0000
vt 0.8941 0.5911 0.0000
vt 0.9879 0.5910 0.0000
vt 0.8989 0.9937 0.0000
vt 0.9831 0.9937 0.0000
vt 0.8020 0.3011 0.0000
vt 0.8857 0.3011 0.0000
vt 0.8073 0.6473 0.0000
vt 0.8804 0.6468 0.0000
vt 0.8124 0.9926 0.0000
vt 0.8754 0.9926 0.0000
vt 0.7452 0.9941 0.0000
vt 0.7920 0.9941 0.0000
# 45 texture coords

g _20_ring
usemtl ring_dusk
s 1
f -220/-45/-69 -221/-44/-69 -222/-43/-69 
f -221/-44/-69 -220/-45/-69 -219/-42/-69 
f -216/-41/-68 -217/-43/-68 -218/-40/-68 
f -217/-43/-68 -216/-41/-68 -215/-45/-68 
f -212/-39/-67 -213/-38/-67 -214/-37/-67 
f -213/-38/-67 -212/-39/-67 -211/-37/-66 
f -208/-37/-65 -209/-36/-65 -210/-39/-65 
f -209/-36/-65 -208/-37/-65 -207/-35/-65 
f -204/-36/-64 -205/-34/-64 -206/-39/-64 
f -205/-34/-64 -204/-36/-64 -203/-35/-64 
f -200/-36/-63 -201/-37/-63 -202/-39/-63 
f -201/-37/-63 -200/-36/-63 -199/-35/-63 
f -196/-34/-62 -197/-36/-62 -198/-39/-62 
f -197/-36/-62 -196/-34/-62 -195/-35/-62 
f -192/-33/-61 -193/-32/-61 -194/-31/-61 
f -193/-32/-61 -192/-33/-61 -191/-30/-61 
f -188/-30/-60 -189/-29/-60 -190/-32/-60 
f -189/-29/-60 -188/-30/-60 -187/-28/-60 
f -184/-44/-59 -185/-45/-59 -186/-43/-59 
f -185/-45/-59 -184/-44/-59 -183/-42/-59 
f -180/-43/-58 -181/-41/-58 -182/-40/-58 
f -181/-41/-58 -180/-43/-58 -179/-45/-58 
f -176/-38/-57 -177/-39/-57 -178/-37/-57 
f -177/-39/-57 -176/-38/-57 -175/-37/-57 
f -172/-36/-56 -173/-37/-56 -174/-39/-56 
f -173/-37/-56 -172/-36/-56 -171/-35/-56 
f -168/-34/-55 -169/-36/-55 -170/-39/-55 
f -169/-36/-55 -168/-34/-55 -167/-35/-55 
f -164/-37/-54 -165/-36/-54 -166/-39/-54 
f -165/-36/-54 -164/-37/-54 -163/-35/-54 
f -160/-36/-53 -161/-34/-53 -162/-39/-53 
f -161/-34/-53 -160/-36/-53 -159/-35/-53 
f -156/-32/-52 -157/-33/-52 -158/-31/-52 
f -157/-33/-52 -156/-32/-52 -155/-30/-52 
f -152/-29/-51 -153/-30/-51 -154/-32/-51 
f -153/-30/-51 -152/-29/-51 -151/-28/-51 
s off
f -148/-27/-50 -149/-26/-50 -150/-41/-50 
f -147/-40/-49 -146/-25/-49 -145/-27/-49 
f -142/-40/-48 -143/-27/-48 -144/-41/-48 
f -141/-24/-47 -140/-34/-47 -139/-23/-47 
f -136/-23/-46 -137/-34/-46 -138/-22/-46 
f -135/-21/-45 -134/-35/-45 -133/-37/-45 
f -130/-39/-44 -131/-34/-44 -132/-24/-44 
f -129/-23/-43 -128/-34/-43 -127/-24/-43 
f -124/-34/-42 -125/-23/-42 -126/-22/-42 
f -123/-37/-41 -122/-35/-41 -121/-21/-41 
f -118/-34/-40 -119/-39/-40 -120/-24/-40 
f -117/-20/-39 -116/-19/-39 -115/-18/-39 
f -112/-18/-38 -113/-19/-38 -114/-17/-38 
f -111/-18/-37 -110/-17/-37 -109/-16/-37 
f -106/-16/-36 -107/-17/-36 -108/-15/-36 
f -105/-14/-35 -104/-13/-35 -103/-12/-35 
f -100/-12/-34 -101/-13/-34 -102/-11/-34 
f -99/-12/-33 -98/-11/-33 -97/-10/-33 
f -94/-10/-32 -95/-11/-32 -96/-9/-32 
f -93/-8/-31 -92/-7/-31 -91/-6/-31 
f -88/-6/-30 -89/-7/-30 -90/-5/-30 
f -87/-6/-29 -86/-5/-29 -85/-4/-29 
f -82/-4/-28 -83/-5/-28 -84/-3/-28 
f -81/-29/-27 -80/-28/-27 -79/-2/-27 
f -76/-2/-26 -77/-28/-26 -78/-1/-26 
f -75/-27/-25 -74/-41/-25 -73/-26/-25 
f -70/-40/-24 -71/-27/-24 -72/-25/-24 
f -69/-40/-23 -68/-41/-23 -67/-27/-23 
f -64/-24/-22 -65/-23/-22 -66/-34/-22 
f -63/-23/-21 -62/-22/-21 -61/-34/-21 
f -58/-21/-20 -59/-37/-20 -60/-35/-20 
f -57/-39/-19 -56/-24/-19 -55/-34/-19 
f -52/-23/-18 -53/-24/-18 -54/-34/-18 
f -51/-34/-17 -50/-22/-17 -49/-23/-17 
f -46/-37/-16 -47/-21/-16 -48/-35/-16 
f -45/-34/-15 -44/-24/-15 -43/-39/-15 
f -40/-20/-14 -41/-18/-14 -42/-19/-14 
f -39/-18/-13 -38/-17/-13 -37/-19/-13 
f -34/-18/-12 -35/-16/-12 -36/-17/-12 
f -33/-16/-11 -32/-15/-11 -31/-17/-11 
f -28/-14/-10 -29/-12/-10 -30/-13/-10 
f -27/-12/-9 -26/-11/-9 -25/-13/-9 
f -22/-12/-8 -23/-10/-8 -24/-11/-8 
f -21/-10/-7 -20/-9/-7 -19/-11/-7 
f -16/-8/-6 -17/-6/-6 -18/-7/-6 
f -15/-6/-5 -14/-5/-5 -13/-7/-5 
f -10/-6/-4 -11/-4/-4 -12/-5/-4 
f -9/-4/-3 -8/-3/-3 -7/-5/-3 
f -4/-29/-2 -5/-2/-2 -6/-28/-2 
f -3/-2/-1 -2/-1/-1 -1/-28/-1 
# 86 faces

