# 3ds Max Wavefront OBJ Exporter v0.94b - (c)2007 guruware
# File Created: 28.01.2011 20:00:31

mtllib BackShield.mtl

#
# object garbage_base1
#

v  1.5173 -3.5383 12.1914
v  -1.4389 -16.8710 7.9457
v  1.1786 -7.4508 8.0249
v  -1.4389 -16.8710 -0.0546
v  0.9895 -8.3270 -0.0546
v  -0.3555 -27.6597 -0.0546
v  -0.3555 -27.6597 -0.0546
v  -1.4389 -16.8710 7.9457
v  -4.2719 -18.8379 -0.0546
v  -3.6717 -7.4831 7.2723
v  -5.2180 -8.2463 -0.0546
v  -3.3691 1.5036 7.2606
v  -4.1166 1.7348 -0.0546
v  -1.7634 7.6621 6.2809
v  -1.7634 7.6621 -0.0546
v  0.6428 9.3229 3.0919
v  0.1986 9.0162 -0.0546
v  -0.3555 -27.6597 -0.0546
v  -1.4389 -16.8710 -8.0550
v  -4.2719 -18.8379 -0.0546
v  -3.6717 -7.4831 -7.3815
v  -5.2180 -8.2463 -0.0546
v  -3.3691 1.5036 -7.3699
v  -4.1166 1.7348 -0.0546
v  -1.7634 7.6621 -6.3901
v  -1.7634 7.6621 -0.0546
v  1.7964 10.1196 -6.1930
v  0.1986 9.0162 -0.0546
v  1.5173 -3.5383 -12.3006
v  0.2930 -4.4687 -11.1399
v  -1.7544 -2.4666 -9.0775
v  -2.1843 0.2809 -8.5655
v  0.3146 -3.6126 -4.5875
v  -1.7544 -2.4666 -9.0775
v  1.1786 -7.4508 -8.1342
v  0.2930 -4.4687 -11.1399
v  1.5173 -3.5383 -12.3006
v  -1.7544 -2.4666 -9.0775
v  -2.1843 0.2809 -8.5655
v  0.3146 -3.6126 -4.5875
v  -1.1383 1.5030 -0.9000
v  -2.1843 0.2809 -8.5655
v  -3.3691 1.5036 -7.3699
v  -1.1383 1.5030 -0.9000
v  0.2428 6.3252 -2.9515
v  -3.3691 1.5036 -7.3699
v  -1.7634 7.6621 -6.3901
v  0.2428 6.3252 -2.9515
v  1.7964 10.1196 -6.1930
v  1.5173 -3.5383 12.1914
v  1.7239 0.6723 12.3006
v  0.9165 5.8070 10.7916
v  -0.5619 8.4916 6.2144
v  1.5173 -3.5383 -12.3006
v  -1.4389 -16.8710 -8.0550
v  1.1786 -7.4508 -8.1342
v  -1.4389 -16.8710 -0.0546
v  0.9895 -8.3270 -0.0546
v  -0.3555 -27.6597 -0.0546
v  1.7239 0.6723 12.3006
v  0.9165 5.8070 10.7916
v  -1.1383 1.5030 -0.9000
v  1.5173 -3.5383 12.1914
v  1.1786 -7.4508 8.0249
v  -1.1383 1.5030 -0.9000
v  0.9895 -8.3270 -0.0546
v  1.1786 -7.4508 8.0249
v  -1.1383 1.5030 -0.9000
v  1.7239 0.6723 12.3006
v  1.5173 -3.5383 12.1914
v  -1.1383 1.5030 -0.9000
v  1.1786 -7.4508 -8.1342
v  0.9895 -8.3270 -0.0546
v  0.3146 -3.6126 -4.5875
v  0.1986 9.0162 -0.0546
v  -1.1383 1.5030 -0.9000
v  0.2428 6.3252 -2.9515
v  0.6428 9.3229 3.0919
v  0.1986 9.0162 -0.0546
v  -1.1383 1.5030 -0.9000
v  0.6428 9.3229 3.0919
v  -0.5619 8.4916 6.2144
v  -1.1383 1.5030 -0.9000
v  0.9165 5.8070 10.7916
v  -0.5619 8.4916 6.2144
v  -1.1383 1.5030 -0.9000
v  0.2428 6.3252 -2.9515
v  1.7964 10.1196 -6.1930
v  0.1986 9.0162 -0.0546
v  -1.1383 1.5030 -0.9000
v  0.3146 -3.6126 -4.5875
v  0.9895 -8.3270 -0.0546
# 92 vertices

vn 0.9488 -0.2651 0.1718
vn 0.9635 -0.2677 0.0000
vn 0.9619 -0.2734 0.0071
vn 0.9950 0.0999 -0.0000
vn -0.8416 -0.3736 0.3899
vn -0.9099 -0.1899 0.3689
vn -0.9729 -0.0869 0.2144
vn -0.9786 0.0332 0.2031
vn -0.9885 0.1091 0.1045
vn -0.9579 0.2667 0.1063
vn -0.9294 0.3690 -0.0000
vn -0.5681 0.8230 -0.0000
vn -0.5680 0.8230 -0.0000
vn -0.8416 -0.3736 -0.3899
vn -0.9099 -0.1899 -0.3689
vn -0.9729 -0.0869 -0.2144
vn -0.9786 0.0332 -0.2031
vn -0.9885 0.1091 -0.1045
vn -0.9579 0.2667 -0.1063
vn -0.5681 0.8229 -0.0000
vn -0.5680 0.8230 0.0001
vn -0.6441 -0.0987 -0.7586
vn -0.6440 -0.0988 -0.7586
vn -0.6975 0.0245 -0.7162
vn -0.6974 0.0244 -0.7162
vn -0.6975 0.0243 -0.7161
vn 0.8500 0.4477 -0.2774
vn 0.8014 0.5256 0.2854
vn 0.1018 0.7210 0.6854
vn 0.9072 0.2099 -0.3645
vn 0.9021 0.3897 -0.1852
vn 0.5950 0.7771 -0.2051
vn 0.8749 -0.3789 -0.3017
vn 0.8331 -0.1317 -0.5373
vn 0.4948 -0.6726 -0.5502
vn -0.6440 -0.0988 0.7586
vn -0.6975 0.0244 0.7162
vn -0.7020 0.0160 0.7120
vn -0.6913 0.1015 0.7154
vn -0.7652 0.2909 0.5743
vn -0.4514 0.6984 0.5554
vn -0.5682 0.8229 -0.0001
vn 0.9488 -0.2651 -0.1718
vn 0.9619 -0.2734 -0.0071
vn 0.9743 0.0928 -0.2054
vn 0.9822 0.0902 -0.1645
vn 0.9772 0.2076 -0.0454
vn 0.9759 -0.0423 -0.2143
vn 0.9824 0.1817 0.0427
vn 0.9618 -0.1930 0.1939
vn 0.9794 -0.1605 -0.1226
vn 0.9047 -0.3383 0.2590
vn 0.9632 0.1485 -0.2240
vn 0.9545 -0.2110 0.2105
vn 0.9726 0.2175 0.0815
# 55 vertex normals

vt 0.0138 0.3705 0.0000
vt 0.0427 0.2733 0.0000
vt 0.0432 0.3426 0.0000
vt 0.0994 0.2726 0.0000
vt 0.1004 0.3355 0.0000
vt 0.0998 0.1995 0.0000
vt 0.7015 0.7116 0.0000
vt 0.7583 0.6350 0.0000
vt 0.7015 0.6490 0.0000
vt 0.7535 0.5684 0.0000
vt 0.7015 0.5738 0.0000
vt 0.7468 0.5026 0.0000
vt 0.7015 0.5030 0.0000
vt 0.7441 0.4601 0.0000
vt 0.7015 0.4609 0.0000
vt 0.7236 0.4434 0.0000
vt 0.7015 0.4469 0.0000
vt 0.7446 0.4348 0.0000
vt 0.7884 0.5404 0.0000
vt 0.7801 0.5470 0.0000
vt 0.7629 0.5320 0.0000
vt 0.7569 0.5117 0.0000
vt 0.1418 0.9453 0.0000
vt 0.1504 0.9147 0.0000
vt 0.1218 0.9194 0.0000
vt 0.1622 0.9283 0.0000
vt 0.1673 0.9364 0.0000
vt 0.1487 0.8973 0.0000
vt 0.1017 0.8856 0.0000
vt 0.1420 0.8891 0.0000
vt 0.1171 0.8567 0.0000
vt 0.1392 0.8502 0.0000
vt 0.1393 0.8348 0.0000
vt 0.7929 0.5057 0.0000
vt 0.7786 0.4651 0.0000
vt 0.7443 0.4516 0.0000
vt 0.0312 0.8524 0.0000
vt 0.0190 0.8835 0.0000
vt 0.0174 0.9098 0.0000
vt 0.0412 0.9364 0.0000
vt 0.0911 0.9463 0.0000
vt 0.1005 0.8383 0.0000
vt 0.0811 0.8347 0.0000
vt 0.0612 0.8382 0.0000
# 44 texture coords

g garbage_base1
usemtl _01___Default
s off
f -92/-44/-55 -91/-43/-55 -90/-42/-55 
f -89/-41/-54 -90/-42/-54 -91/-43/-54 
f -90/-42/-53 -89/-41/-53 -88/-40/-53 
f -87/-39/-52 -89/-41/-52 -91/-43/-52 
f -86/-38/-51 -85/-37/-51 -84/-36/-51 
f -83/-35/-50 -84/-36/-50 -85/-37/-50 
f -84/-36/-49 -83/-35/-49 -82/-34/-49 
f -81/-33/-48 -82/-34/-48 -83/-35/-48 
f -82/-34/-47 -81/-33/-47 -80/-32/-47 
f -79/-31/-46 -80/-32/-46 -81/-33/-46 
f -80/-32/-45 -79/-31/-45 -78/-30/-45 
f -77/-29/-44 -78/-30/-44 -79/-31/-44 
f -78/-30/-43 -77/-29/-43 -76/-28/-43 
f -73/-36/-42 -74/-37/-42 -75/-38/-42 
f -74/-37/-41 -73/-36/-41 -72/-35/-41 
f -71/-34/-40 -72/-35/-40 -73/-36/-40 
f -72/-35/-39 -71/-34/-39 -70/-33/-39 
f -69/-32/-38 -70/-33/-38 -71/-34/-38 
f -70/-33/-37 -69/-32/-37 -68/-31/-37 
f -67/-30/-45 -68/-31/-45 -69/-32/-45 
f -68/-31/-36 -67/-30/-36 -66/-27/-36 
f -65/-28/-35 -66/-27/-35 -67/-30/-35 
f -64/-26/-34 -74/-37/-34 -63/-25/-34 
f -72/-35/-33 -63/-25/-33 -74/-37/-33 
f -63/-25/-32 -72/-35/-32 -62/-24/-32 
f -70/-33/-31 -62/-24/-31 -72/-35/-31 
f -62/-24/-30 -70/-33/-30 -61/-23/-30 
f -58/-22/-29 -59/-21/-29 -60/-20/-29 
f -59/-21/-28 -58/-22/-28 -57/-19/-28 
f -56/-18/-27 -57/-19/-27 -58/-22/-27 
f -55/-21/-26 -54/-17/-26 -53/-20/-26 
f -52/-16/-25 -53/-20/-25 -54/-17/-25 
f -51/-17/-24 -50/-15/-24 -49/-16/-24 
f -48/-14/-23 -49/-16/-23 -50/-15/-23 
f -47/-15/-22 -46/-13/-22 -45/-14/-22 
f -44/-12/-21 -45/-14/-21 -46/-13/-21 
f -85/-37/-20 -43/-26/-20 -83/-35/-20 
f -83/-35/-19 -43/-26/-19 -81/-33/-19 
f -42/-11/-18 -81/-33/-18 -43/-26/-18 
f -41/-10/-17 -81/-33/-17 -42/-11/-17 
f -81/-33/-16 -41/-10/-16 -79/-31/-16 
f -40/-9/-15 -79/-31/-15 -41/-10/-15 
f -79/-31/-14 -40/-9/-14 -77/-29/-14 
f -37/-42/-13 -38/-43/-13 -39/-44/-13 
f -38/-43/-54 -37/-42/-54 -36/-41/-54 
f -35/-40/-12 -36/-41/-12 -37/-42/-12 
f -36/-41/-52 -34/-39/-52 -38/-43/-52 
f -31/-16/-11 -32/-8/-11 -33/-7/-11 
f -30/-6/-10 -29/-5/-10 -28/-16/-10 
f -25/-16/-9 -26/-5/-9 -27/-4/-9 
f -24/-7/-8 -23/-6/-8 -22/-16/-8 
f -19/-20/-7 -20/-4/-7 -21/-22/-7 
f -18/-3/-6 -17/-16/-6 -16/-14/-6 
f -13/-16/-5 -14/-3/-5 -15/-2/-5 
f -12/-2/-4 -11/-1/-4 -10/-16/-4 
f -7/-16/-3 -8/-1/-3 -9/-8/-3 
f -6/-14/-2 -5/-12/-2 -4/-3/-2 
f -1/-4/-1 -2/-20/-1 -3/-16/-1 
# 58 faces

