# 3ds Max Wavefront OBJ Exporter v0.94b - (c)2007 guruware
# File Created: 28.01.2011 20:03:18

mtllib Spike.mtl

#
# object garbage_base1
#

v  -1.0295 4.8586 -0.2143
v  -0.3494 4.4604 -0.8302
v  -1.9719 5.3708 -2.6281
v  -1.1525 4.7989 -2.6775
v  -1.3852 3.5764 -5.7169
v  -0.6917 3.2527 -5.0735
v  -2.4728 -1.3999 -0.5683
v  -2.3437 -1.4867 0.4195
v  0.2914 -1.1526 -1.3289
v  0.5682 -1.8393 -0.6571
v  2.8231 -1.4130 -2.0894
v  3.0421 -2.3629 -1.8660
v  2.8373 -1.5393 -4.5790
v  2.9792 -2.4883 -4.8597
v  -0.1136 -0.6018 -4.6827
v  -0.0654 -1.1087 -5.5433
v  2.8231 -1.4130 -2.0894
v  3.0421 -2.3629 -1.8660
v  2.8373 -1.5393 -4.5790
v  2.9792 -2.4883 -4.8597
v  -0.3494 4.4604 -0.8302
v  -1.0295 4.8586 -0.2143
v  -1.0885 0.8997 -0.9261
v  -1.2720 1.0786 0.0405
v  -2.4728 -1.3999 -0.5683
v  -2.5006 -1.5428 -5.7759
v  -1.0455 0.5155 -4.7865
v  -1.3430 0.6322 -5.7341
v  -0.6917 3.2527 -5.0735
v  -1.3852 3.5764 -5.7169
v  -1.2720 1.0786 0.0405
v  -2.3437 -1.4867 0.4195
v  -2.4728 -1.3999 -4.7865
v  -1.0455 0.5155 -4.7865
v  -6.0676 -51.1140 4.7867
v  -7.8160 -27.1011 0.6758
v  -9.9937 -26.9608 2.1154
v  -7.2359 -14.1816 -1.2436
v  -9.6942 -13.3397 0.2199
v  -8.3395 -7.3961 -2.6961
v  -6.1137 -8.1267 -3.5474
v  -6.8658 -3.6179 -3.5870
v  -4.5922 -4.9010 -4.4353
v  -2.4728 -1.3999 -4.7865
v  -2.0903 -4.6019 -2.8788
v  -0.1136 -0.6018 -4.6827
v  0.0778 -2.2032 -3.7289
v  2.8373 -1.5393 -4.5790
v  -3.8379 -7.9741 -1.1721
v  -7.2359 -14.1816 -1.2436
v  -5.3868 -13.8747 0.6276
v  -7.8160 -27.1011 0.6758
v  -6.1794 -27.2125 2.5957
v  -6.0676 -51.1140 4.7867
v  -10.6902 -13.3064 0.1373
v  -7.5743 -3.1873 -0.2833
v  -9.1972 -7.3180 -3.2044
v  -7.6293 -3.3399 -4.1701
v  -4.5304 2.0170 -4.5521
v  -2.5006 -1.5428 -5.7759
v  -2.2399 2.2170 -5.2235
v  -1.3430 0.6322 -5.7341
v  -1.3852 3.5764 -5.7169
v  -2.9060 3.4816 -3.6566
v  -1.9719 5.3708 -2.6281
v  -2.9013 3.4799 -1.6851
v  -1.0295 4.8586 -0.2143
v  -2.2037 2.6485 -0.4645
v  -4.4921 2.0477 -0.7929
v  -3.9114 1.4776 -3.9809
v  -1.7649 1.9547 -4.3838
v  -1.0455 0.5155 -4.7865
v  -0.6917 3.2527 -5.0735
v  -2.2095 2.8440 -3.3292
v  -1.1525 4.7989 -2.6775
v  -2.2095 2.8440 -2.0256
v  -0.3494 4.4604 -0.8302
v  -1.8079 2.3380 -1.3289
v  -3.9114 1.4776 -1.3738
v  -3.9114 1.4776 -3.9809
v  -6.8658 -3.6179 -0.8421
v  -6.8658 -3.6179 -3.5870
v  -8.3395 -7.3961 -2.6961
v  -3.8379 -7.9741 -1.1721
v  -4.5922 -4.9010 0.0062
v  -2.0903 -4.6019 -2.8788
v  -2.4728 -1.3999 -0.5683
v  0.2914 -1.1526 -1.3289
v  0.0707 -2.1401 -2.4842
v  2.8231 -1.4130 -2.0894
v  2.8373 -1.5393 -4.5790
v  0.0778 -2.2032 -3.7289
v  -0.3494 4.4604 -0.8302
v  -1.8079 2.3380 -1.3289
v  -1.0885 0.8997 -0.9261
v  -3.9114 1.4776 -1.3738
v  -6.8658 -3.6179 -0.8421
v  -7.6970 -13.0108 2.4106
v  -5.3868 -13.8747 0.6276
v  -6.1794 -27.2125 2.5957
v  -8.2312 -27.0116 4.0506
v  -6.0676 -51.1140 4.7867
v  -9.9937 -26.9608 2.1154
v  -9.6942 -13.3397 0.2199
v  0.5682 -1.8393 -0.6571
v  -2.3437 -1.4867 0.4195
v  -1.3039 -5.2035 -3.0207
v  -4.2742 -4.8045 0.9494
v  -2.9068 -8.3266 -1.0769
v  -7.8044 -12.8249 3.3873
v  -4.4032 -14.0018 0.7552
v  -5.1881 -27.2256 2.7278
v  -8.3605 -26.9441 5.0399
v  -5.9859 -52.1051 4.8865
v  -10.9853 -27.0353 2.0118
v  -10.6902 -13.3064 0.1373
v  -7.5743 -3.1873 -0.2833
v  -4.2742 -4.8045 0.9494
v  -2.3437 -1.4867 0.4195
v  -4.4921 2.0477 -0.7929
v  -2.2037 2.6485 -0.4645
v  -1.2720 1.0786 0.0405
v  -1.0295 4.8586 -0.2143
v  -1.3039 -5.2035 -3.0207
v  0.5778 -2.9478 -2.1840
v  3.0421 -2.3629 -1.8660
v  2.9792 -2.4883 -4.8597
v  0.3882 -2.9987 -4.2499
v  0.3882 -2.9987 -4.2499
v  -0.0654 -1.1087 -5.5433
v  -1.3039 -5.2035 -3.0207
v  -4.5124 -5.1299 -5.4054
v  -6.0171 -8.4801 -4.4778
v  -7.1460 -14.4579 -2.2005
v  -10.9853 -27.0353 2.0118
v  -7.7081 -27.2616 -0.3054
v  -5.9859 -52.1051 4.8865
v  -5.9859 -52.1051 4.8865
v  -5.1881 -27.2256 2.7278
v  -7.7081 -27.2616 -0.3054
v  -4.4032 -14.0018 0.7552
v  -7.1460 -14.4579 -2.2005
v  -2.9068 -8.3266 -1.0769
v  -2.4728 -1.3999 -4.7865
v  -0.1136 -0.6018 -4.6827
v  -0.0654 -1.1087 -5.5433
v  -2.5006 -1.5428 -5.7759
v  -0.0654 -1.1087 -5.5433
# 148 vertices

vn 0.4981 0.8670 -0.0105
vn 0.5658 0.8190 -0.0959
vn 0.5212 0.7772 -0.3525
vn 0.6330 0.7002 -0.3301
vn -0.0626 0.9935 0.0955
vn 0.3142 0.7256 0.6122
vn 0.2651 0.7268 0.6336
vn 0.4694 0.3033 0.8293
vn 0.1282 0.2989 -0.9456
vn 0.4509 0.7799 -0.4341
vn 0.9747 0.2233 -0.0058
vn 0.9874 0.1557 -0.0273
vn 0.6147 -0.1485 0.7747
vn 0.9795 -0.0497 0.1951
vn 0.8466 -0.4710 0.2478
vn 0.8395 -0.4407 -0.3178
vn 0.9371 -0.1540 -0.3132
vn 0.6836 0.0140 -0.7297
vn 0.9036 -0.4001 -0.1532
vn 0.8002 -0.5963 0.0637
vn 0.5505 0.1797 0.8153
vn 0.5532 0.0981 0.8273
vn 0.5350 0.1049 0.8383
vn 0.5581 0.2595 0.7882
vn 0.4172 0.2546 0.8724
vn 0.3765 0.0709 0.9237
vn 0.3842 0.0722 0.9204
vn 0.3038 -0.0888 0.9486
vn -0.5195 0.3907 0.7599
vn -0.2011 0.4835 0.8519
vn -0.2008 0.4834 0.8520
vn 0.1352 0.5189 0.8441
vn -0.5110 0.4437 0.7362
vn -0.6034 0.5863 0.5405
vn -0.6834 0.3668 0.6312
vn -0.6903 0.3707 0.6213
vn -0.7158 0.1340 0.6854
vn -0.7495 0.1400 0.6470
vn -0.7582 0.0560 0.6496
vn -0.9489 0.2967 0.1077
vn -0.9305 0.3664 -0.0012
vn -0.8658 0.5003 -0.0074
vn -0.3370 0.1285 -0.9327
vn -0.2904 0.1588 -0.9436
vn -0.2626 0.1581 -0.9519
vn -0.4975 -0.0021 -0.8674
vn -0.7774 0.2852 -0.5607
vn -0.6664 0.5827 -0.4651
vn -0.8969 0.4421 0.0025
vn -0.7264 0.5575 0.4019
vn -0.7182 0.3111 0.6224
vn -0.2794 0.7118 0.6445
vn -0.6689 0.7434 0.0007
vn -0.8615 0.5077 0.0046
vn -0.6703 0.7421 0.0023
vn -0.2573 0.6956 -0.6708
vn 0.3123 -0.1081 0.9438
vn 0.2166 -0.1613 0.9629
vn 0.2164 -0.1612 0.9629
vn 0.5215 0.0220 0.8530
vn 0.7516 -0.3129 0.5807
vn 0.6952 -0.5357 0.4794
vn 0.8797 -0.4756 0.0000
vn 0.7339 -0.5360 -0.4173
vn 0.6957 -0.3279 -0.6392
vn 0.2942 -0.6846 -0.6669
vn 0.6261 -0.7798 0.0000
vn 0.8651 -0.5016 0.0000
vn 0.9316 -0.3634 0.0000
vn 0.9437 -0.2916 -0.1559
vn 0.2782 -0.6733 0.6850
vn -0.7572 0.0634 -0.6501
vn -0.7271 0.3425 -0.5950
vn -0.2677 0.5426 -0.7962
vn -0.6477 0.6358 -0.4198
vn -0.1115 0.7658 -0.6333
vn -0.2483 0.9674 -0.0505
vn -0.7480 0.6626 -0.0379
vn 0.3973 -0.0578 -0.9159
vn 0.1096 -0.2169 -0.9700
vn 0.1094 -0.2169 -0.9701
vn 0.1575 -0.1924 -0.9686
vn 0.1968 -0.2736 -0.9415
vn 0.1572 -0.3356 -0.9288
vn -0.7321 0.0797 -0.6765
vn -0.6262 -0.0724 -0.7763
vn -0.6271 -0.0771 -0.7751
vn -0.5816 -0.0727 -0.8102
vn -0.5817 -0.0769 -0.8097
vn 0.7392 0.0458 -0.6720
vn 0.7335 -0.1095 -0.6709
vn 0.7427 -0.1058 -0.6612
vn 0.7299 -0.2805 -0.6234
vn 0.1990 -0.6351 0.7463
vn 0.7377 -0.3357 0.5857
vn 0.7985 -0.0358 0.6010
vn 0.7233 -0.1112 0.6815
vn 0.6279 0.0842 0.7737
vn 0.6270 0.0784 0.7751
vn 0.5916 0.0707 0.8031
vn 0.5912 0.0509 0.8049
vn -0.7524 -0.0750 0.6544
vn -0.7530 0.1049 0.6496
vn -0.7513 0.1058 0.6514
vn -0.7416 0.2542 0.6208
vn -0.1699 0.3543 0.9196
vn -0.2153 0.2749 0.9371
vn -0.1967 0.2090 0.9579
vn -0.1930 0.2114 0.9582
vn -0.1657 0.2115 0.9632
vn -0.3593 0.0857 0.9293
vn 0.5762 -0.6597 0.4825
vn 0.1154 -0.8035 0.5841
vn 0.2264 -0.9734 0.0360
vn 0.1947 -0.9808 0.0063
vn 0.7768 -0.6273 -0.0559
vn -0.0781 -0.5757 -0.8139
vn 0.1048 -0.5444 -0.8323
vn 0.1765 -0.5544 -0.8133
vn 0.5454 -0.3829 -0.7456
vn -0.3247 0.0848 -0.9420
vn -0.4028 -0.0717 -0.9125
vn -0.3922 -0.0681 -0.9173
vn -0.4367 -0.2471 -0.8650
vn -0.5901 -0.2762 -0.7586
vn -0.5701 -0.0991 -0.8156
vn -0.5791 -0.0944 -0.8098
vn -0.5744 -0.2054 -0.7924
vn 0.7672 -0.0798 -0.6364
vn 0.7625 -0.1395 -0.6318
vn 0.7367 -0.1305 -0.6635
vn 0.7067 -0.3792 -0.5973
vn 0.6947 -0.3669 -0.6187
vn 0.5913 -0.6226 -0.5127
vn 0.5295 -0.4388 -0.7260
vn -0.2575 0.8262 -0.5010
vn -0.1612 0.9774 -0.1367
# 137 vertex normals

vt 0.9599 0.9837 0.0000
vt 0.9549 0.9753 0.0000
vt 0.9461 0.9711 0.0000
vt 0.9189 0.9556 0.0000
vt 0.9256 0.9643 0.0000
vt 0.9324 0.9731 0.0000
vt 0.9378 0.9708 0.0000
vt 0.9401 0.9598 0.0000
vt 0.9251 0.9851 0.0000
vt 0.9220 0.9703 0.0000
vt 0.9442 0.9599 0.0000
vt 0.9424 0.9487 0.0000
vt 0.9298 0.6953 0.0000
vt 0.9484 0.8059 0.0000
vt 0.9631 0.7935 0.0000
vt 0.9472 0.8719 0.0000
vt 0.9664 0.8644 0.0000
vt 0.9562 0.9025 0.0000
vt 0.9430 0.9072 0.0000
vt 0.9566 0.9238 0.0000
vt 0.9425 0.9284 0.0000
vt 0.9299 0.9392 0.0000
vt 0.9338 0.9550 0.0000
vt 0.9286 0.9149 0.0000
vt 0.9302 0.8777 0.0000
vt 0.9333 0.8099 0.0000
vt 0.9719 0.9174 0.0000
vt 0.9555 0.9541 0.0000
vt 0.9508 0.9626 0.0000
vt 0.9552 0.9647 0.0000
vt 0.9620 0.9669 0.0000
vt 0.9645 0.9711 0.0000
vt 0.9691 0.9585 0.0000
vt 0.9153 0.9283 0.0000
vt 0.9311 0.9561 0.0000
vt 0.9162 0.9764 0.0000
vt 0.9074 0.9678 0.0000
vt 0.8979 0.9303 0.0000
vt 0.9127 0.8781 0.0000
vt 0.9182 0.8083 0.0000
vt 0.9031 0.8005 0.0000
vt 0.8954 0.8704 0.0000
# 42 texture coords

g garbage_base1
usemtl _01___Default
s off
f -148/-42/-137 -147/-42/-137 -146/-41/-137 
f -145/-41/-136 -146/-41/-136 -147/-42/-136 
f -146/-41/-135 -145/-41/-135 -144/-40/-135 
f -143/-40/-134 -144/-40/-134 -145/-41/-134 
f -142/-39/-133 -141/-39/-133 -140/-38/-133 
f -139/-38/-132 -140/-38/-132 -141/-39/-132 
f -140/-38/-131 -139/-38/-131 -138/-37/-131 
f -137/-37/-130 -138/-37/-130 -139/-38/-130 
f -136/-36/-129 -135/-36/-129 -134/-35/-129 
f -133/-35/-128 -134/-35/-128 -135/-36/-128 
f -132/-37/-127 -131/-37/-127 -130/-36/-127 
f -129/-36/-126 -130/-36/-126 -131/-37/-126 
f -128/-34/-125 -127/-34/-125 -126/-33/-125 
f -125/-33/-124 -126/-33/-124 -127/-34/-124 
f -126/-33/-123 -125/-33/-123 -124/-39/-123 
f -121/-32/-122 -122/-32/-122 -123/-31/-122 
f -122/-32/-121 -121/-32/-121 -120/-40/-121 
f -119/-40/-120 -120/-40/-120 -121/-32/-120 
f -118/-33/-119 -117/-39/-119 -124/-39/-119 
f -123/-31/-118 -115/-32/-118 -116/-31/-118 
f -114/-30/-117 -113/-29/-117 -112/-28/-117 
f -111/-27/-116 -112/-28/-116 -113/-29/-116 
f -112/-28/-115 -111/-27/-115 -110/-26/-115 
f -110/-26/-114 -111/-27/-114 -109/-25/-114 
f -108/-24/-113 -109/-25/-113 -111/-27/-113 
f -109/-25/-112 -108/-24/-112 -107/-23/-112 
f -106/-22/-111 -107/-23/-111 -108/-24/-111 
f -107/-23/-110 -106/-22/-110 -105/-31/-110 
f -104/-21/-109 -105/-31/-109 -106/-22/-109 
f -105/-31/-108 -104/-21/-108 -103/-35/-108 
f -102/-20/-107 -103/-35/-107 -104/-21/-107 
f -103/-35/-106 -102/-20/-106 -101/-36/-106 
f -108/-24/-105 -104/-21/-105 -106/-22/-105 
f -104/-21/-104 -108/-24/-104 -100/-19/-104 
f -99/-27/-103 -100/-19/-103 -108/-24/-103 
f -100/-19/-102 -99/-27/-102 -98/-18/-102 
f -97/-29/-101 -98/-18/-101 -99/-27/-101 
f -98/-18/-100 -97/-29/-100 -96/-17/-100 
f -95/-30/-99 -96/-17/-99 -97/-29/-99 
f -94/-26/-98 -93/-16/-98 -92/-25/-98 
f -92/-25/-97 -93/-16/-97 -91/-23/-97 
f -90/-15/-96 -91/-23/-96 -93/-16/-96 
f -91/-23/-95 -90/-15/-95 -89/-31/-95 
f -88/-14/-94 -89/-31/-94 -90/-15/-94 
f -89/-31/-93 -88/-14/-93 -87/-32/-93 
f -87/-32/-92 -88/-14/-92 -86/-40/-92 
f -85/-13/-91 -86/-40/-91 -88/-14/-91 
f -86/-40/-90 -85/-13/-90 -84/-41/-90 
f -83/-12/-89 -84/-41/-89 -85/-13/-89 
f -84/-41/-88 -83/-12/-88 -82/-42/-88 
f -82/-42/-87 -83/-12/-87 -81/-11/-87 
f -81/-11/-86 -83/-12/-86 -80/-10/-86 
f -90/-15/-85 -80/-10/-85 -83/-12/-85 
f -80/-10/-84 -90/-15/-84 -93/-16/-84 
f -85/-13/-83 -90/-15/-83 -83/-12/-83 
f -90/-15/-82 -85/-13/-82 -88/-14/-82 
f -105/-31/-81 -79/-15/-81 -107/-23/-81 
f -79/-15/-80 -105/-31/-80 -78/-14/-80 
f -77/-32/-79 -78/-14/-79 -105/-31/-79 
f -76/-40/-78 -78/-14/-78 -77/-32/-78 
f -78/-14/-77 -76/-40/-77 -75/-13/-77 
f -74/-41/-76 -75/-13/-76 -76/-40/-76 
f -75/-13/-75 -74/-41/-75 -73/-12/-75 
f -72/-42/-74 -73/-12/-74 -74/-41/-74 
f -71/-11/-73 -73/-12/-73 -72/-42/-73 
f -70/-10/-72 -73/-12/-72 -71/-11/-72 
f -73/-12/-71 -70/-10/-71 -69/-15/-71 
f -68/-16/-70 -69/-15/-70 -70/-10/-70 
f -69/-15/-70 -68/-16/-70 -67/-23/-70 
f -67/-23/-69 -68/-16/-69 -66/-25/-69 
f -110/-26/-68 -66/-25/-68 -68/-16/-68 
f -69/-15/-71 -75/-13/-71 -73/-12/-71 
f -78/-14/-67 -75/-13/-67 -79/-15/-67 
f -65/-19/-66 -64/-9/-66 -63/-21/-66 
f -62/-39/-65 -63/-21/-65 -64/-9/-65 
f -61/-38/-64 -63/-21/-64 -62/-39/-64 
f -63/-21/-63 -61/-38/-63 -60/-8/-63 
f -59/-37/-62 -60/-8/-62 -61/-38/-62 
f -58/-36/-61 -60/-8/-61 -59/-37/-61 
f -57/-20/-61 -60/-8/-61 -58/-36/-61 
f -60/-8/-60 -57/-20/-60 -63/-21/-60 
f -54/-33/-59 -55/-7/-59 -56/-34/-59 
f -62/-39/-58 -55/-7/-58 -54/-33/-58 
f -55/-7/-57 -62/-39/-57 -53/-6/-57 
f -53/-6/-56 -62/-39/-56 -52/-5/-56 
f -64/-9/-55 -52/-5/-55 -62/-39/-55 
f -52/-5/-54 -64/-9/-54 -51/-4/-54 
f -65/-19/-53 -51/-4/-53 -64/-9/-53 
f -50/-18/-52 -51/-4/-52 -65/-19/-52 
f -49/-17/-51 -51/-4/-51 -50/-18/-51 
f -51/-4/-50 -49/-17/-50 -48/-3/-50 
f -47/-30/-49 -48/-3/-49 -49/-17/-49 
f -46/-2/-48 -48/-3/-48 -47/-30/-48 
f -45/-1/-47 -48/-3/-47 -46/-2/-47 
f -48/-3/-46 -45/-1/-46 -51/-4/-46 
f -52/-5/-45 -51/-4/-45 -45/-1/-45 
f -44/-38/-44 -43/-39/-44 -42/-21/-44 
f -41/-9/-43 -42/-21/-43 -43/-39/-43 
f -42/-21/-42 -41/-9/-42 -40/-19/-42 
f -39/-4/-41 -40/-19/-41 -41/-9/-41 
f -40/-19/-40 -39/-4/-40 -38/-18/-40 
f -38/-18/-39 -39/-4/-39 -37/-17/-39 
f -36/-3/-38 -37/-17/-38 -39/-4/-38 
f -37/-17/-37 -36/-3/-37 -35/-30/-37 
f -35/-30/-36 -36/-3/-36 -34/-2/-36 
f -34/-2/-35 -36/-3/-35 -33/-1/-35 
f -39/-4/-34 -33/-1/-34 -36/-3/-34 
f -33/-1/-33 -39/-4/-33 -32/-5/-33 
f -31/-9/-32 -32/-5/-32 -39/-4/-32 
f -30/-39/-31 -32/-5/-31 -31/-9/-31 
f -32/-5/-30 -30/-39/-30 -29/-6/-30 
f -29/-6/-29 -30/-39/-29 -28/-7/-29 
f -27/-33/-28 -28/-7/-28 -30/-39/-28 
f -28/-7/-27 -27/-33/-27 -26/-34/-27 
f -24/-8/-26 -44/-38/-26 -25/-21/-26 
f -44/-38/-25 -24/-8/-25 -23/-37/-25 
f -23/-37/-24 -24/-8/-24 -22/-36/-24 
f -22/-36/-23 -24/-8/-23 -21/-20/-23 
f -25/-21/-22 -21/-20/-22 -24/-8/-22 
f -22/-36/-21 -20/-20/-21 -19/-35/-21 
f -18/-21/-20 -19/-35/-20 -20/-20/-20 
f -19/-35/-19 -18/-21/-19 -89/-31/-19 
f -17/-22/-18 -89/-31/-18 -18/-21/-18 
f -89/-31/-17 -17/-22/-17 -91/-23/-17 
f -16/-24/-16 -91/-23/-16 -17/-22/-16 
f -91/-23/-15 -16/-24/-15 -92/-25/-15 
f -15/-27/-14 -92/-25/-14 -16/-24/-14 
f -92/-25/-13 -15/-27/-13 -94/-26/-13 
f -94/-26/-12 -15/-27/-12 -14/-28/-12 
f -13/-29/-11 -14/-28/-11 -15/-27/-11 
f -14/-28/-10 -13/-29/-10 -12/-30/-10 
f -9/-29/-9 -10/-17/-9 -11/-30/-9 
f -10/-17/-8 -9/-29/-8 -8/-18/-8 
f -7/-27/-7 -8/-18/-7 -9/-29/-7 
f -8/-18/-6 -7/-27/-6 -6/-19/-6 
f -16/-24/-5 -6/-19/-5 -7/-27/-5 
f -6/-19/-4 -16/-24/-4 -18/-21/-4 
f -17/-22/-3 -18/-21/-3 -16/-24/-3 
f -5/-31/-2 -4/-35/-2 -3/-35/-2 
f -5/-31/-1 -1/-35/-1 -2/-31/-1 
# 140 faces

