# 3ds Max Wavefront OBJ Exporter v0.94b - (c)2007 guruware
# File Created: 20.01.2011 18:56:36

mtllib HealthPack.mtl

#
# object _ground_point
#

v  0.0000 1.0000 -0.0000
v  0.0000 0.9239 -0.3827
v  -0.1464 0.9239 -0.3536
v  -0.2706 0.9239 -0.2706
v  -0.3536 0.9239 -0.1464
v  -0.3827 0.9239 -0.0000
v  -0.3536 0.9239 0.1464
v  -0.2706 0.9239 0.2706
v  -0.1464 0.9239 0.3536
v  0.0000 0.9239 0.3827
v  0.1464 0.9239 0.3536
v  0.2706 0.9239 0.2706
v  0.3536 0.9239 0.1464
v  0.3827 0.9239 -0.0000
v  0.3536 0.9239 -0.1464
v  0.2706 0.9239 -0.2706
v  0.1464 0.9239 -0.3536
v  0.0000 0.7071 -0.7071
v  -0.2706 0.7071 -0.6533
v  -0.5000 0.7071 -0.5000
v  -0.6533 0.7071 -0.2706
v  -0.7071 0.7071 -0.0000
v  -0.6533 0.7071 0.2706
v  -0.5000 0.7071 0.5000
v  -0.2706 0.7071 0.6533
v  0.0000 0.7071 0.7071
v  0.2706 0.7071 0.6533
v  0.5000 0.7071 0.5000
v  0.6533 0.7071 0.2706
v  0.7071 0.7071 -0.0000
v  0.6533 0.7071 -0.2706
v  0.5000 0.7071 -0.5000
v  0.2706 0.7071 -0.6533
v  0.0000 0.3827 -0.9239
v  -0.3536 0.3827 -0.8536
v  -0.6533 0.3827 -0.6533
v  -0.8536 0.3827 -0.3536
v  -0.9239 0.3827 -0.0000
v  -0.8536 0.3827 0.3536
v  -0.6533 0.3827 0.6533
v  -0.3536 0.3827 0.8536
v  0.0000 0.3827 0.9239
v  0.3536 0.3827 0.8536
v  0.6533 0.3827 0.6533
v  0.8536 0.3827 0.3536
v  0.9239 0.3827 -0.0000
v  0.8536 0.3827 -0.3536
v  0.6533 0.3827 -0.6533
v  0.3536 0.3827 -0.8536
v  0.0000 -0.0000 -1.0000
v  -0.3827 -0.0000 -0.9239
v  -0.7071 -0.0000 -0.7071
v  -0.9239 -0.0000 -0.3827
v  -1.0000 -0.0000 0.0000
v  -0.9239 -0.0000 0.3827
v  -0.7071 -0.0000 0.7071
v  -0.3827 -0.0000 0.9239
v  0.0000 -0.0000 1.0000
v  0.3827 -0.0000 0.9239
v  0.7071 -0.0000 0.7071
v  0.9239 -0.0000 0.3827
v  1.0000 -0.0000 -0.0000
v  0.9239 -0.0000 -0.3827
v  0.7071 -0.0000 -0.7071
v  0.3827 -0.0000 -0.9239
v  0.0000 -0.3827 -0.9239
v  -0.3536 -0.3827 -0.8536
v  -0.6533 -0.3827 -0.6533
v  -0.8536 -0.3827 -0.3536
v  -0.9239 -0.3827 0.0000
v  -0.8536 -0.3827 0.3536
v  -0.6533 -0.3827 0.6533
v  -0.3536 -0.3827 0.8536
v  0.0000 -0.3827 0.9239
v  0.3536 -0.3827 0.8536
v  0.6533 -0.3827 0.6533
v  0.8536 -0.3827 0.3536
v  0.9239 -0.3827 -0.0000
v  0.8536 -0.3827 -0.3536
v  0.6533 -0.3827 -0.6533
v  0.3536 -0.3827 -0.8536
v  0.0000 -0.7071 -0.7071
v  -0.2706 -0.7071 -0.6533
v  -0.5000 -0.7071 -0.5000
v  -0.6533 -0.7071 -0.2706
v  -0.7071 -0.7071 0.0000
v  -0.6533 -0.7071 0.2706
v  -0.5000 -0.7071 0.5000
v  -0.2706 -0.7071 0.6533
v  0.0000 -0.7071 0.7071
v  0.2706 -0.7071 0.6533
v  0.5000 -0.7071 0.5000
v  0.6533 -0.7071 0.2706
v  0.7071 -0.7071 0.0000
v  0.6533 -0.7071 -0.2706
v  0.5000 -0.7071 -0.5000
v  0.2706 -0.7071 -0.6533
v  0.0000 -0.9239 -0.3827
v  -0.1464 -0.9239 -0.3536
v  -0.2706 -0.9239 -0.2706
v  -0.3536 -0.9239 -0.1464
v  -0.3827 -0.9239 0.0000
v  -0.3536 -0.9239 0.1464
v  -0.2706 -0.9239 0.2706
v  -0.1464 -0.9239 0.3536
v  0.0000 -0.9239 0.3827
v  0.1464 -0.9239 0.3536
v  0.2706 -0.9239 0.2706
v  0.3536 -0.9239 0.1464
v  0.3827 -0.9239 0.0000
v  0.3536 -0.9239 -0.1464
v  0.2706 -0.9239 -0.2706
v  0.1464 -0.9239 -0.3536
v  0.0000 -1.0000 0.0000
# 114 vertices

vn -0.0388 0.9800 -0.1949
vn -0.1104 0.9800 -0.1653
vn -0.1653 0.9800 -0.1104
vn -0.1949 0.9800 -0.0388
vn -0.1949 0.9800 0.0388
vn -0.1653 0.9800 0.1104
vn -0.1104 0.9800 0.1653
vn -0.0388 0.9800 0.1949
vn 0.0388 0.9800 0.1949
vn 0.1104 0.9800 0.1653
vn 0.1653 0.9800 0.1104
vn 0.1949 0.9800 0.0388
vn 0.1949 0.9800 -0.0388
vn 0.1653 0.9800 -0.1104
vn 0.1104 0.9800 -0.1653
vn 0.0388 0.9800 -0.1949
vn -0.1098 0.8264 -0.5522
vn -0.3128 0.8264 -0.4681
vn -0.4681 0.8264 -0.3128
vn -0.5522 0.8264 -0.1098
vn -0.5522 0.8264 0.1098
vn -0.4681 0.8264 0.3128
vn -0.3128 0.8264 0.4681
vn -0.1098 0.8264 0.5522
vn 0.1098 0.8264 0.5522
vn 0.3128 0.8264 0.4681
vn 0.4681 0.8264 0.3128
vn 0.5522 0.8264 0.1098
vn 0.5522 0.8264 -0.1098
vn 0.4681 0.8264 -0.3128
vn 0.3128 0.8264 -0.4681
vn 0.1098 0.8264 -0.5522
vn -0.1632 0.5481 -0.8203
vn -0.4647 0.5481 -0.6954
vn -0.6954 0.5481 -0.4647
vn -0.8203 0.5481 -0.1632
vn -0.8203 0.5481 0.1632
vn -0.6954 0.5481 0.4647
vn -0.4647 0.5481 0.6954
vn -0.1632 0.5481 0.8203
vn 0.1632 0.5481 0.8203
vn 0.4647 0.5481 0.6954
vn 0.6954 0.5481 0.4647
vn 0.8203 0.5481 0.1632
vn 0.8203 0.5481 -0.1632
vn 0.6954 0.5481 -0.4647
vn 0.4647 0.5481 -0.6954
vn 0.1632 0.5481 -0.8203
vn -0.1915 0.1915 -0.9626
vn -0.5453 0.1915 -0.8161
vn -0.8161 0.1915 -0.5453
vn -0.9626 0.1915 -0.1915
vn -0.9626 0.1915 0.1915
vn -0.8161 0.1915 0.5453
vn -0.5453 0.1915 0.8161
vn -0.1915 0.1915 0.9626
vn 0.1915 0.1915 0.9626
vn 0.5453 0.1915 0.8161
vn 0.8161 0.1915 0.5453
vn 0.9626 0.1915 0.1915
vn 0.9626 0.1915 -0.1915
vn 0.8161 0.1915 -0.5453
vn 0.5453 0.1915 -0.8161
vn 0.1915 0.1915 -0.9626
vn -0.1915 -0.1915 -0.9626
vn -0.5453 -0.1915 -0.8161
vn -0.8161 -0.1915 -0.5453
vn -0.9626 -0.1915 -0.1915
vn -0.9626 -0.1915 0.1915
vn -0.8161 -0.1915 0.5453
vn -0.5453 -0.1915 0.8161
vn -0.1915 -0.1915 0.9626
vn 0.1915 -0.1915 0.9626
vn 0.5453 -0.1915 0.8161
vn 0.8161 -0.1915 0.5453
vn 0.9626 -0.1915 0.1915
vn 0.9626 -0.1915 -0.1915
vn 0.8161 -0.1915 -0.5453
vn 0.5453 -0.1915 -0.8161
vn 0.1915 -0.1915 -0.9626
vn -0.1632 -0.5481 -0.8203
vn -0.4647 -0.5481 -0.6954
vn -0.6954 -0.5481 -0.4647
vn -0.8203 -0.5481 -0.1632
vn -0.8203 -0.5481 0.1632
vn -0.6954 -0.5481 0.4647
vn -0.4647 -0.5481 0.6954
vn -0.1632 -0.5481 0.8203
vn 0.1632 -0.5481 0.8203
vn 0.4647 -0.5481 0.6954
vn 0.6954 -0.5481 0.4647
vn 0.8203 -0.5481 0.1632
vn 0.8203 -0.5481 -0.1632
vn 0.6954 -0.5481 -0.4647
vn 0.4647 -0.5481 -0.6954
vn 0.1632 -0.5481 -0.8203
vn -0.1098 -0.8264 -0.5522
vn -0.3128 -0.8264 -0.4681
vn -0.4681 -0.8264 -0.3128
vn -0.5522 -0.8264 -0.1098
vn -0.5522 -0.8264 0.1098
vn -0.4681 -0.8264 0.3128
vn -0.3128 -0.8264 0.4681
vn -0.1098 -0.8264 0.5522
vn 0.1098 -0.8264 0.5522
vn 0.3128 -0.8264 0.4681
vn 0.4681 -0.8264 0.3128
vn 0.5522 -0.8264 0.1098
vn 0.5522 -0.8264 -0.1098
vn 0.4681 -0.8264 -0.3128
vn 0.3128 -0.8264 -0.4681
vn 0.1098 -0.8264 -0.5522
vn -0.0388 -0.9800 -0.1949
vn -0.1104 -0.9800 -0.1653
vn -0.1653 -0.9800 -0.1104
vn -0.1949 -0.9800 -0.0388
vn -0.1949 -0.9800 0.0388
vn -0.1653 -0.9800 0.1104
vn -0.1104 -0.9800 0.1653
vn -0.0388 -0.9800 0.1949
vn 0.0388 -0.9800 0.1949
vn 0.1104 -0.9800 0.1653
vn 0.1653 -0.9800 0.1104
vn 0.1949 -0.9800 0.0388
vn 0.1949 -0.9800 -0.0388
vn 0.1653 -0.9800 -0.1104
vn 0.1104 -0.9800 -0.1653
vn 0.0388 -0.9800 -0.1949
# 128 vertex normals

g _ground_point
usemtl wire_204204204
s off
f -114//-128 -113//-128 -112//-128 
f -114//-127 -112//-127 -111//-127 
f -114//-126 -111//-126 -110//-126 
f -114//-125 -110//-125 -109//-125 
f -114//-124 -109//-124 -108//-124 
f -114//-123 -108//-123 -107//-123 
f -114//-122 -107//-122 -106//-122 
f -114//-121 -106//-121 -105//-121 
f -114//-120 -105//-120 -104//-120 
f -114//-119 -104//-119 -103//-119 
f -114//-118 -103//-118 -102//-118 
f -114//-117 -102//-117 -101//-117 
f -114//-116 -101//-116 -100//-116 
f -114//-115 -100//-115 -99//-115 
f -114//-114 -99//-114 -98//-114 
f -114//-113 -98//-113 -113//-113 
f -113//-112 -97//-112 -96//-112 
f -113//-112 -96//-112 -112//-112 
f -112//-111 -96//-111 -95//-111 
f -112//-111 -95//-111 -111//-111 
f -111//-110 -95//-110 -94//-110 
f -111//-110 -94//-110 -110//-110 
f -110//-109 -94//-109 -93//-109 
f -110//-109 -93//-109 -109//-109 
f -109//-108 -93//-108 -92//-108 
f -109//-108 -92//-108 -108//-108 
f -108//-107 -92//-107 -91//-107 
f -108//-107 -91//-107 -107//-107 
f -107//-106 -91//-106 -90//-106 
f -107//-106 -90//-106 -106//-106 
f -106//-105 -90//-105 -89//-105 
f -106//-105 -89//-105 -105//-105 
f -105//-104 -89//-104 -88//-104 
f -105//-104 -88//-104 -104//-104 
f -104//-103 -88//-103 -87//-103 
f -104//-103 -87//-103 -103//-103 
f -103//-102 -87//-102 -86//-102 
f -103//-102 -86//-102 -102//-102 
f -102//-101 -86//-101 -85//-101 
f -102//-101 -85//-101 -101//-101 
f -101//-100 -85//-100 -84//-100 
f -101//-100 -84//-100 -100//-100 
f -100//-99 -84//-99 -83//-99 
f -100//-99 -83//-99 -99//-99 
f -99//-98 -83//-98 -82//-98 
f -99//-98 -82//-98 -98//-98 
f -98//-97 -82//-97 -97//-97 
f -98//-97 -97//-97 -113//-97 
f -97//-96 -81//-96 -80//-96 
f -97//-96 -80//-96 -96//-96 
f -96//-95 -80//-95 -79//-95 
f -96//-95 -79//-95 -95//-95 
f -95//-94 -79//-94 -78//-94 
f -95//-94 -78//-94 -94//-94 
f -94//-93 -78//-93 -77//-93 
f -94//-93 -77//-93 -93//-93 
f -93//-92 -77//-92 -76//-92 
f -93//-92 -76//-92 -92//-92 
f -92//-91 -76//-91 -75//-91 
f -92//-91 -75//-91 -91//-91 
f -91//-90 -75//-90 -74//-90 
f -91//-90 -74//-90 -90//-90 
f -90//-89 -74//-89 -73//-89 
f -90//-89 -73//-89 -89//-89 
f -89//-88 -73//-88 -72//-88 
f -89//-88 -72//-88 -88//-88 
f -88//-87 -72//-87 -71//-87 
f -88//-87 -71//-87 -87//-87 
f -87//-86 -71//-86 -70//-86 
f -87//-86 -70//-86 -86//-86 
f -86//-85 -70//-85 -69//-85 
f -86//-85 -69//-85 -85//-85 
f -85//-84 -69//-84 -68//-84 
f -85//-84 -68//-84 -84//-84 
f -84//-83 -68//-83 -67//-83 
f -84//-83 -67//-83 -83//-83 
f -83//-82 -67//-82 -66//-82 
f -83//-82 -66//-82 -82//-82 
f -82//-81 -66//-81 -81//-81 
f -82//-81 -81//-81 -97//-81 
f -81//-80 -65//-80 -64//-80 
f -81//-80 -64//-80 -80//-80 
f -80//-79 -64//-79 -63//-79 
f -80//-79 -63//-79 -79//-79 
f -79//-78 -63//-78 -62//-78 
f -79//-78 -62//-78 -78//-78 
f -78//-77 -62//-77 -61//-77 
f -78//-77 -61//-77 -77//-77 
f -77//-76 -61//-76 -60//-76 
f -77//-76 -60//-76 -76//-76 
f -76//-75 -60//-75 -59//-75 
f -76//-75 -59//-75 -75//-75 
f -75//-74 -59//-74 -58//-74 
f -75//-74 -58//-74 -74//-74 
f -74//-73 -58//-73 -57//-73 
f -74//-73 -57//-73 -73//-73 
f -73//-72 -57//-72 -56//-72 
f -73//-72 -56//-72 -72//-72 
f -72//-71 -56//-71 -55//-71 
f -72//-71 -55//-71 -71//-71 
f -71//-70 -55//-70 -54//-70 
f -71//-70 -54//-70 -70//-70 
f -70//-69 -54//-69 -53//-69 
f -70//-69 -53//-69 -69//-69 
f -69//-68 -53//-68 -52//-68 
f -69//-68 -52//-68 -68//-68 
f -68//-67 -52//-67 -51//-67 
f -68//-67 -51//-67 -67//-67 
f -67//-66 -51//-66 -50//-66 
f -67//-66 -50//-66 -66//-66 
f -66//-65 -50//-65 -65//-65 
f -66//-65 -65//-65 -81//-65 
f -65//-64 -49//-64 -48//-64 
f -65//-64 -48//-64 -64//-64 
f -64//-63 -48//-63 -47//-63 
f -64//-63 -47//-63 -63//-63 
f -63//-62 -47//-62 -46//-62 
f -63//-62 -46//-62 -62//-62 
f -62//-61 -46//-61 -45//-61 
f -62//-61 -45//-61 -61//-61 
f -61//-60 -45//-60 -44//-60 
f -61//-60 -44//-60 -60//-60 
f -60//-59 -44//-59 -43//-59 
f -60//-59 -43//-59 -59//-59 
f -59//-58 -43//-58 -42//-58 
f -59//-58 -42//-58 -58//-58 
f -58//-57 -42//-57 -41//-57 
f -58//-57 -41//-57 -57//-57 
f -57//-56 -41//-56 -40//-56 
f -57//-56 -40//-56 -56//-56 
f -56//-55 -40//-55 -39//-55 
f -56//-55 -39//-55 -55//-55 
f -55//-54 -39//-54 -38//-54 
f -55//-54 -38//-54 -54//-54 
f -54//-53 -38//-53 -37//-53 
f -54//-53 -37//-53 -53//-53 
f -53//-52 -37//-52 -36//-52 
f -53//-52 -36//-52 -52//-52 
f -52//-51 -36//-51 -35//-51 
f -52//-51 -35//-51 -51//-51 
f -51//-50 -35//-50 -34//-50 
f -51//-50 -34//-50 -50//-50 
f -50//-49 -34//-49 -49//-49 
f -50//-49 -49//-49 -65//-49 
f -49//-48 -33//-48 -32//-48 
f -49//-48 -32//-48 -48//-48 
f -48//-47 -32//-47 -31//-47 
f -48//-47 -31//-47 -47//-47 
f -47//-46 -31//-46 -30//-46 
f -47//-46 -30//-46 -46//-46 
f -46//-45 -30//-45 -29//-45 
f -46//-45 -29//-45 -45//-45 
f -45//-44 -29//-44 -28//-44 
f -45//-44 -28//-44 -44//-44 
f -44//-43 -28//-43 -27//-43 
f -44//-43 -27//-43 -43//-43 
f -43//-42 -27//-42 -26//-42 
f -43//-42 -26//-42 -42//-42 
f -42//-41 -26//-41 -25//-41 
f -42//-41 -25//-41 -41//-41 
f -41//-40 -25//-40 -24//-40 
f -41//-40 -24//-40 -40//-40 
f -40//-39 -24//-39 -23//-39 
f -40//-39 -23//-39 -39//-39 
f -39//-38 -23//-38 -22//-38 
f -39//-38 -22//-38 -38//-38 
f -38//-37 -22//-37 -21//-37 
f -38//-37 -21//-37 -37//-37 
f -37//-36 -21//-36 -20//-36 
f -37//-36 -20//-36 -36//-36 
f -36//-35 -20//-35 -19//-35 
f -36//-35 -19//-35 -35//-35 
f -35//-34 -19//-34 -18//-34 
f -35//-34 -18//-34 -34//-34 
f -34//-33 -18//-33 -33//-33 
f -34//-33 -33//-33 -49//-33 
f -33//-32 -17//-32 -16//-32 
f -33//-32 -16//-32 -32//-32 
f -32//-31 -16//-31 -15//-31 
f -32//-31 -15//-31 -31//-31 
f -31//-30 -15//-30 -14//-30 
f -31//-30 -14//-30 -30//-30 
f -30//-29 -14//-29 -13//-29 
f -30//-29 -13//-29 -29//-29 
f -29//-28 -13//-28 -12//-28 
f -29//-28 -12//-28 -28//-28 
f -28//-27 -12//-27 -11//-27 
f -28//-27 -11//-27 -27//-27 
f -27//-26 -11//-26 -10//-26 
f -27//-26 -10//-26 -26//-26 
f -26//-25 -10//-25 -9//-25 
f -26//-25 -9//-25 -25//-25 
f -25//-24 -9//-24 -8//-24 
f -25//-24 -8//-24 -24//-24 
f -24//-23 -8//-23 -7//-23 
f -24//-23 -7//-23 -23//-23 
f -23//-22 -7//-22 -6//-22 
f -23//-22 -6//-22 -22//-22 
f -22//-21 -6//-21 -5//-21 
f -22//-21 -5//-21 -21//-21 
f -21//-20 -5//-20 -4//-20 
f -21//-20 -4//-20 -20//-20 
f -20//-19 -4//-19 -3//-19 
f -20//-19 -3//-19 -19//-19 
f -19//-18 -3//-18 -2//-18 
f -19//-18 -2//-18 -18//-18 
f -18//-17 -2//-17 -17//-17 
f -18//-17 -17//-17 -33//-17 
f -1//-16 -16//-16 -17//-16 
f -1//-15 -15//-15 -16//-15 
f -1//-14 -14//-14 -15//-14 
f -1//-13 -13//-13 -14//-13 
f -1//-12 -12//-12 -13//-12 
f -1//-11 -11//-11 -12//-11 
f -1//-10 -10//-10 -11//-10 
f -1//-9 -9//-9 -10//-9 
f -1//-8 -8//-8 -9//-8 
f -1//-7 -7//-7 -8//-7 
f -1//-6 -6//-6 -7//-6 
f -1//-5 -5//-5 -6//-5 
f -1//-4 -4//-4 -5//-4 
f -1//-3 -3//-3 -4//-3 
f -1//-2 -2//-2 -3//-2 
f -1//-1 -17//-1 -2//-1 
# 224 faces

#
# object __unnamed
#

v  4.0000 2.0000 10.0000
v  -4.0000 2.0000 10.0000
v  4.0000 6.0000 10.0000
v  -4.0000 6.0000 10.0000
v  4.0000 6.0000 -10.0000
v  4.0000 2.0000 -10.0000
v  8.0000 6.0000 -3.7313
v  8.0000 2.0000 -3.7313
v  4.0000 6.0000 10.0000
v  8.0000 6.0000 3.7313
v  4.0000 2.0000 10.0000
v  8.0000 2.0000 3.7313
v  -4.0000 2.0000 -10.0000
v  4.0000 2.0000 -10.0000
v  -4.0000 6.0000 -10.0000
v  4.0000 6.0000 -10.0000
v  -4.0000 6.0000 10.0000
v  -4.0000 2.0000 10.0000
v  -8.0000 6.0000 3.7313
v  -8.0000 2.0000 3.7313
v  -4.0000 6.0000 -10.0000
v  -8.0000 6.0000 -3.7313
v  -4.0000 2.0000 -10.0000
v  -8.0000 2.0000 -3.7313
v  -8.0000 6.0000 3.7313
v  -8.0000 2.0000 3.7313
v  -8.0000 6.0000 -3.7313
v  -8.0000 2.0000 -3.7313
v  8.0000 6.0000 3.7313
v  8.0000 6.0000 -3.7313
v  8.0000 2.0000 3.7313
v  8.0000 2.0000 -3.7313
v  8.0000 6.0000 3.7313
v  4.0000 6.0000 10.0000
v  4.0000 8.0000 3.7313
v  -4.0000 6.0000 10.0000
v  -4.0000 8.0000 3.7313
v  -8.0000 6.0000 3.7313
v  -4.0000 8.0000 -3.7313
v  -8.0000 6.0000 -3.7313
v  -4.0000 6.0000 -10.0000
v  4.0000 8.0000 -3.7313
v  4.0000 6.0000 -10.0000
v  8.0000 6.0000 -3.7313
v  4.0000 2.0000 -10.0000
v  4.0000 0.0000 -3.7313
v  8.0000 2.0000 -3.7313
v  4.0000 0.0000 3.7313
v  8.0000 2.0000 3.7313
v  4.0000 2.0000 10.0000
v  -4.0000 2.0000 10.0000
v  -4.0000 0.0000 3.7313
v  -8.0000 2.0000 3.7313
v  -4.0000 0.0000 -3.7313
v  -8.0000 2.0000 -3.7313
v  -4.0000 2.0000 -10.0000
# 56 vertices

vn 0.0000 -0.0000 1.0000
vn 0.8430 -0.0000 -0.5379
vn 0.8430 0.0000 -0.5379
vn 0.8430 -0.0000 0.5379
vn 0.0000 0.0000 -1.0000
vn -0.8430 -0.0000 0.5379
vn -0.8430 -0.0000 -0.5379
vn -0.8430 0.0000 -0.5379
vn -1.0000 0.0000 -0.0000
vn 1.0000 0.0000 -0.0000
vn 0.2228 0.9637 0.1471
vn 0.1268 0.9450 0.3015
vn 0.4444 0.8888 0.1122
vn -0.1268 0.9450 0.3015
vn -0.2228 0.9637 0.1471
vn -0.4444 0.8888 0.1122
vn -0.2228 0.9637 -0.1471
vn -0.4444 0.8888 -0.1122
vn -0.1268 0.9450 -0.3015
vn 0.2228 0.9637 -0.1471
vn 0.1268 0.9450 -0.3015
vn 0.4444 0.8888 -0.1122
vn 0.4444 -0.8888 -0.1122
vn 0.2228 -0.9637 -0.1471
vn 0.1268 -0.9450 -0.3015
vn 0.2228 -0.9637 0.1471
vn 0.4444 -0.8888 0.1122
vn 0.1268 -0.9450 0.3015
vn -0.1268 -0.9450 0.3015
vn -0.2228 -0.9637 0.1471
vn -0.4444 -0.8888 0.1122
vn -0.2228 -0.9637 -0.1471
vn -0.4444 -0.8888 -0.1122
vn -0.1268 -0.9450 -0.3015
# 34 vertex normals

vt 0.8281 0.3376 0.0000
vt 0.9927 0.6669 0.0000
vt 0.9927 0.3376 0.0000
vt 0.8281 0.6669 0.0000
vt 0.5700 0.1733 0.0000
vt 0.8280 0.0087 0.0000
vt 0.8280 0.1733 0.0000
vt 0.5700 0.0087 0.0000
vt 0.0049 0.0087 0.0000
vt 0.2629 0.1733 0.0000
vt 0.0049 0.1733 0.0000
vt 0.2629 0.0087 0.0000
vt 0.2629 0.8319 0.0000
vt 0.0049 0.9966 0.0000
vt 0.0049 0.8319 0.0000
vt 0.2629 0.9966 0.0000
vt 0.8280 0.9966 0.0000
vt 0.5700 0.8319 0.0000
vt 0.8280 0.8319 0.0000
vt 0.5700 0.9966 0.0000
vt 0.2629 0.3380 0.0000
vt 0.0049 0.3380 0.0000
vt 0.0049 0.6673 0.0000
vt 0.2629 0.6673 0.0000
vt 0.5700 0.6673 0.0000
vt 0.5700 0.3380 0.0000
vt 0.9323 0.1736 0.0000
vt 0.9323 0.2123 0.0000
vt 0.9930 0.2122 0.0000
vt 0.8602 0.2123 0.0000
vt 0.8602 0.1736 0.0000
vt 0.7995 0.2123 0.0000
vt 0.7995 0.2897 0.0000
vt 0.8602 0.2897 0.0000
vt 0.8602 0.3283 0.0000
vt 0.9323 0.2897 0.0000
vt 0.9323 0.3283 0.0000
vt 0.9930 0.2896 0.0000
# 38 texture coords

g __unnamed
usemtl healthpack
s 1
f -54/-38/-34 -55/-37/-34 -56/-36/-34 
f -55/-37/-34 -54/-38/-34 -53/-35/-34 
f -50/-34/-33 -51/-33/-33 -52/-32/-32 
f -51/-33/-33 -50/-34/-33 -49/-31/-33 
f -46/-30/-31 -47/-29/-31 -48/-28/-31 
f -47/-29/-31 -46/-30/-31 -45/-27/-31 
f -42/-35/-30 -43/-36/-30 -44/-37/-30 
f -43/-36/-30 -42/-35/-30 -41/-38/-30 
f -38/-26/-29 -39/-25/-29 -40/-24/-29 
f -39/-25/-29 -38/-26/-29 -37/-23/-29 
f -34/-22/-28 -35/-21/-28 -36/-20/-27 
f -35/-21/-28 -34/-22/-28 -33/-19/-28 
f -30/-21/-26 -31/-23/-26 -32/-26/-26 
f -31/-23/-26 -30/-21/-26 -29/-19/-26 
f -26/-27/-25 -27/-34/-25 -28/-29/-25 
f -27/-34/-25 -26/-27/-25 -25/-31/-25 
f -22/-18/-24 -23/-17/-23 -24/-29/-22 
f -23/-17/-23 -22/-18/-24 -21/-16/-21 
f -20/-15/-20 -21/-16/-21 -22/-18/-24 
f -21/-16/-21 -20/-15/-20 -19/-26/-19 
f -18/-14/-18 -19/-26/-19 -20/-15/-20 
f -19/-26/-19 -18/-14/-18 -17/-21/-17 
f -17/-21/-17 -18/-14/-18 -16/-35/-16 
f -15/-13/-15 -16/-35/-16 -18/-14/-18 
f -16/-35/-16 -15/-13/-15 -14/-38/-14 
f -14/-38/-14 -15/-13/-15 -13/-34/-13 
f -22/-18/-24 -13/-34/-13 -15/-13/-15 
f -13/-34/-13 -22/-18/-24 -24/-29/-22 
f -18/-14/-18 -22/-18/-24 -15/-13/-15 
f -22/-18/-24 -18/-14/-18 -20/-15/-20 
f -10/-12/-12 -11/-11/-11 -12/-10/-10 
f -11/-11/-11 -10/-12/-12 -9/-9/-9 
f -8/-8/-8 -9/-9/-9 -10/-12/-12 
f -7/-7/-7 -9/-9/-9 -8/-8/-8 
f -6/-6/-6 -9/-9/-9 -7/-7/-7 
f -9/-9/-9 -6/-6/-6 -5/-5/-5 
f -4/-4/-4 -5/-5/-5 -6/-6/-6 
f -5/-5/-5 -4/-4/-4 -3/-3/-3 
f -2/-2/-2 -3/-3/-3 -4/-4/-4 
f -1/-1/-1 -3/-3/-3 -2/-2/-2 
f -12/-10/-10 -3/-3/-3 -1/-1/-1 
f -11/-11/-11 -3/-3/-3 -12/-10/-10 
f -3/-3/-3 -11/-11/-11 -5/-5/-5 
f -9/-9/-9 -5/-5/-5 -11/-11/-11 
# 44 faces

